<svg xmlns="http://www.w3.org/2000/svg" xmlns:xlink="http://www.w3.org/1999/xlink" width="500" zoomAndPan="magnify" viewBox="0 0 375 374.999991" height="500" preserveAspectRatio="xMidYMid meet" version="1.0"><defs><g/><clipPath id="9af0f28695"><path d="M 88.023438 135.484375 L 138.273438 135.484375 L 138.273438 194.734375 L 88.023438 194.734375 Z M 88.023438 135.484375 " clip-rule="nonzero"/></clipPath><clipPath id="e930fb8a74"><path d="M 68.59375 135.484375 L 82 135.484375 L 82 149 L 68.59375 149 Z M 68.59375 135.484375 " clip-rule="nonzero"/></clipPath><clipPath id="f341370172"><path d="M 68.59375 154 L 82.09375 154 L 82.09375 194.734375 L 68.59375 194.734375 Z M 68.59375 154 " clip-rule="nonzero"/></clipPath><clipPath id="113b70ba60"><path d="M 34 140.683594 L 57 140.683594 L 57 145 L 34 145 Z M 34 140.683594 " clip-rule="nonzero"/></clipPath><clipPath id="5bbe0dd464"><path d="M 40 148 L 62.421875 148 L 62.421875 168 L 40 168 Z M 40 148 " clip-rule="nonzero"/></clipPath><clipPath id="f17650ceae"><path d="M 33 161 L 51 161 L 51 189.433594 L 33 189.433594 Z M 33 161 " clip-rule="nonzero"/></clipPath><clipPath id="002e014ef3"><path d="M 45 177 L 55 177 L 55 189.433594 L 45 189.433594 Z M 45 177 " clip-rule="nonzero"/></clipPath><clipPath id="18208c9640"><path d="M 34 140.683594 L 57 140.683594 L 57 145 L 34 145 Z M 34 140.683594 " clip-rule="nonzero"/></clipPath><clipPath id="f5318f7cd6"><path d="M 40 148 L 62.421875 148 L 62.421875 168 L 40 168 Z M 40 148 " clip-rule="nonzero"/></clipPath><clipPath id="7515512bd3"><path d="M 33 161 L 51 161 L 51 189.433594 L 33 189.433594 Z M 33 161 " clip-rule="nonzero"/></clipPath><clipPath id="1b0e11c6f7"><path d="M 45 177 L 55 177 L 55 189.433594 L 45 189.433594 Z M 45 177 " clip-rule="nonzero"/></clipPath></defs><rect x="-37.5" width="450" fill="#ffffff" y="-37.499999" height="449.999989" fill-opacity="1"/><rect x="-37.5" width="450" fill="#ffffff" y="-37.499999" height="449.999989" fill-opacity="1"/><g clip-path="url(#9af0f28695)"><path fill="#032d6c" d="M 99.285156 183.6875 L 108.554688 183.6875 C 118.769531 183.6875 127.050781 175.40625 127.050781 165.1875 C 127.050781 154.972656 118.769531 146.691406 108.554688 146.691406 L 88.160156 146.648438 L 88.160156 135.476562 L 108.554688 135.476562 C 124.964844 135.476562 138.265625 148.777344 138.265625 165.1875 C 138.265625 181.597656 124.964844 194.902344 108.554688 194.902344 L 88.160156 194.902344 L 88.160156 149.535156 L 99.285156 149.535156 L 99.285156 183.6875 " fill-opacity="1" fill-rule="nonzero"/></g><g clip-path="url(#e930fb8a74)"><path fill="#032d6c" d="M 69.402344 148.015625 C 68.988281 147.597656 68.742188 147.074219 68.742188 146.449219 L 68.742188 137.78125 C 68.742188 136.496094 69.71875 135.519531 71.003906 135.519531 L 79.671875 135.519531 C 80.261719 135.484375 80.820312 135.761719 81.238281 136.179688 C 81.65625 136.597656 81.898438 137.191406 81.933594 137.78125 L 81.933594 146.449219 C 81.933594 147.703125 80.925781 148.710938 79.671875 148.710938 L 71.003906 148.710938 C 70.414062 148.675781 69.820312 148.46875 69.402344 148.015625 Z M 69.402344 148.015625 " fill-opacity="1" fill-rule="evenodd"/></g><g clip-path="url(#f341370172)"><path fill="#032d6c" d="M 81.34375 194.933594 L 69.300781 194.933594 C 68.917969 194.933594 68.605469 194.621094 68.605469 194.238281 L 68.605469 155.117188 C 68.605469 154.734375 68.917969 154.417969 69.300781 154.417969 L 81.34375 154.417969 C 81.761719 154.417969 82.074219 154.734375 82.074219 155.117188 L 82.074219 194.238281 C 82.109375 194.621094 81.761719 194.933594 81.34375 194.933594 Z M 81.34375 194.933594 " fill-opacity="1" fill-rule="evenodd"/></g><g clip-path="url(#113b70ba60)"><path fill="#0048aa" d="M 35.554688 144.660156 C 38.664062 143.300781 41.914062 142.65625 45.304688 142.71875 C 48.699219 142.660156 51.949219 143.308594 55.0625 144.664062 C 55.183594 144.722656 55.316406 144.757812 55.453125 144.761719 C 55.589844 144.769531 55.722656 144.75 55.851562 144.703125 C 55.980469 144.65625 56.09375 144.585938 56.195312 144.496094 C 56.292969 144.402344 56.375 144.292969 56.429688 144.167969 C 56.488281 144.042969 56.515625 143.914062 56.519531 143.777344 C 56.523438 143.640625 56.503906 143.507812 56.453125 143.378906 C 56.402344 143.25 56.332031 143.136719 56.234375 143.039062 C 56.140625 142.941406 56.03125 142.863281 55.902344 142.8125 C 52.527344 141.332031 48.992188 140.625 45.304688 140.683594 C 41.617188 140.617188 38.082031 141.328125 34.703125 142.8125 C 34.578125 142.867188 34.46875 142.941406 34.371094 143.042969 C 34.277344 143.140625 34.203125 143.253906 34.15625 143.382812 C 34.105469 143.511719 34.082031 143.644531 34.085938 143.78125 C 34.089844 143.917969 34.121094 144.050781 34.179688 144.175781 C 34.238281 144.300781 34.316406 144.410156 34.417969 144.5 C 34.519531 144.59375 34.636719 144.664062 34.765625 144.707031 C 34.894531 144.753906 35.027344 144.773438 35.164062 144.765625 C 35.300781 144.757812 35.433594 144.722656 35.554688 144.660156 Z M 35.554688 144.660156 " fill-opacity="1" fill-rule="nonzero"/></g><path fill="#0048aa" d="M 31.78125 152.59375 C 32.214844 152.136719 32.671875 151.703125 33.152344 151.292969 C 33.628906 150.882812 34.128906 150.496094 34.648438 150.136719 C 35.164062 149.777344 35.699219 149.441406 36.25 149.136719 C 36.800781 148.832031 37.367188 148.554688 37.949219 148.304688 C 38.527344 148.054688 39.117188 147.835938 39.71875 147.648438 C 40.320312 147.460938 40.933594 147.300781 41.550781 147.175781 C 42.167969 147.046875 42.789062 146.953125 43.417969 146.886719 C 44.046875 146.824219 44.675781 146.792969 45.304688 146.792969 C 45.9375 146.792969 46.566406 146.824219 47.191406 146.886719 C 47.820312 146.953125 48.445312 147.046875 49.0625 147.175781 C 49.679688 147.300781 50.289062 147.460938 50.890625 147.648438 C 51.492188 147.835938 52.085938 148.054688 52.664062 148.304688 C 53.242188 148.554688 53.808594 148.832031 54.359375 149.136719 C 54.914062 149.441406 55.445312 149.777344 55.964844 150.136719 C 56.484375 150.496094 56.980469 150.882812 57.460938 151.292969 C 57.9375 151.703125 58.394531 152.136719 58.828125 152.59375 C 59.027344 152.78125 59.265625 152.875 59.539062 152.871094 C 59.808594 152.867188 60.042969 152.769531 60.238281 152.578125 C 60.433594 152.386719 60.535156 152.15625 60.542969 151.882812 C 60.550781 151.609375 60.464844 151.371094 60.28125 151.171875 C 59.796875 150.664062 59.292969 150.1875 58.761719 149.730469 C 58.230469 149.277344 57.679688 148.851562 57.105469 148.453125 C 56.53125 148.054688 55.941406 147.6875 55.328125 147.351562 C 54.71875 147.011719 54.09375 146.707031 53.453125 146.429688 C 52.808594 146.15625 52.15625 145.914062 51.488281 145.707031 C 50.824219 145.496094 50.148438 145.324219 49.464844 145.183594 C 48.78125 145.042969 48.089844 144.9375 47.398438 144.867188 C 46.703125 144.796875 46.003906 144.761719 45.308594 144.761719 C 44.609375 144.761719 43.914062 144.796875 43.21875 144.867188 C 42.523438 144.9375 41.835938 145.042969 41.152344 145.183594 C 40.46875 145.324219 39.792969 145.496094 39.125 145.707031 C 38.460938 145.914062 37.804688 146.15625 37.164062 146.429688 C 36.523438 146.707031 35.894531 147.011719 35.285156 147.351562 C 34.675781 147.6875 34.082031 148.054688 33.507812 148.453125 C 32.933594 148.851562 32.382812 149.277344 31.851562 149.730469 C 31.324219 150.1875 30.816406 150.664062 30.335938 151.171875 C 30.160156 151.375 30.078125 151.609375 30.089844 151.875 C 30.101562 152.144531 30.203125 152.371094 30.390625 152.558594 C 30.582031 152.746094 30.8125 152.84375 31.078125 152.851562 C 31.347656 152.859375 31.582031 152.773438 31.78125 152.59375 Z M 31.78125 152.59375 " fill-opacity="1" fill-rule="nonzero"/><g clip-path="url(#5bbe0dd464)"><path fill="#0048aa" d="M 45.304688 148.824219 C 43.859375 148.824219 42.433594 149.003906 41.03125 149.359375 C 40.898438 149.390625 40.773438 149.445312 40.664062 149.527344 C 40.554688 149.605469 40.460938 149.707031 40.390625 149.824219 C 40.320312 149.941406 40.273438 150.066406 40.253906 150.199219 C 40.230469 150.335938 40.238281 150.46875 40.273438 150.601562 C 40.304688 150.734375 40.363281 150.855469 40.445312 150.964844 C 40.53125 151.074219 40.628906 151.164062 40.75 151.234375 C 40.867188 151.300781 40.996094 151.34375 41.128906 151.363281 C 41.265625 151.378906 41.398438 151.371094 41.53125 151.332031 C 42.09375 151.191406 42.660156 151.082031 43.234375 151.003906 C 43.808594 150.925781 44.386719 150.878906 44.964844 150.867188 C 45.542969 150.855469 46.121094 150.875 46.699219 150.929688 C 47.277344 150.984375 47.847656 151.070312 48.414062 151.1875 C 48.984375 151.308594 49.542969 151.457031 50.089844 151.640625 C 50.640625 151.820312 51.179688 152.035156 51.707031 152.277344 C 52.230469 152.519531 52.742188 152.792969 53.238281 153.09375 C 53.730469 153.394531 54.207031 153.722656 54.664062 154.078125 C 55.121094 154.433594 55.558594 154.816406 55.972656 155.222656 C 56.386719 155.625 56.777344 156.054688 57.144531 156.503906 C 57.507812 156.953125 57.847656 157.421875 58.160156 157.910156 C 58.472656 158.394531 58.757812 158.902344 59.011719 159.421875 C 59.265625 159.941406 59.492188 160.472656 59.683594 161.019531 C 59.878906 161.566406 60.042969 162.121094 60.175781 162.683594 C 60.304688 163.25 60.402344 163.820312 60.46875 164.394531 C 60.535156 164.96875 60.570312 165.546875 60.570312 166.128906 C 60.570312 166.261719 60.597656 166.390625 60.648438 166.515625 C 60.699219 166.640625 60.773438 166.75 60.871094 166.847656 C 60.964844 166.941406 61.074219 167.015625 61.199219 167.066406 C 61.324219 167.117188 61.453125 167.144531 61.589844 167.144531 C 61.722656 167.144531 61.855469 167.117188 61.980469 167.066406 C 62.101562 167.015625 62.214844 166.941406 62.308594 166.847656 C 62.40625 166.75 62.476562 166.640625 62.53125 166.515625 C 62.582031 166.390625 62.605469 166.261719 62.605469 166.128906 C 62.605469 165.5625 62.578125 164.996094 62.523438 164.433594 C 62.464844 163.867188 62.382812 163.308594 62.269531 162.753906 C 62.160156 162.199219 62.023438 161.648438 61.859375 161.105469 C 61.691406 160.566406 61.5 160.03125 61.285156 159.507812 C 61.066406 158.984375 60.824219 158.476562 60.558594 157.976562 C 60.289062 157.476562 60 156.992188 59.683594 156.519531 C 59.371094 156.050781 59.03125 155.59375 58.671875 155.15625 C 58.3125 154.71875 57.933594 154.300781 57.535156 153.898438 C 57.132812 153.5 56.714844 153.117188 56.277344 152.757812 C 55.839844 152.398438 55.382812 152.0625 54.914062 151.746094 C 54.441406 151.433594 53.957031 151.140625 53.457031 150.875 C 52.957031 150.609375 52.445312 150.367188 51.921875 150.148438 C 51.398438 149.929688 50.867188 149.738281 50.324219 149.574219 C 49.785156 149.410156 49.234375 149.273438 48.679688 149.160156 C 48.125 149.050781 47.566406 148.96875 47 148.910156 C 46.4375 148.855469 45.871094 148.828125 45.304688 148.824219 Z M 45.304688 148.824219 " fill-opacity="1" fill-rule="nonzero"/></g><path fill="#0048aa" d="M 30.039062 166.144531 C 30.054688 164.128906 30.445312 162.195312 31.214844 160.332031 C 31.980469 158.472656 33.070312 156.824219 34.476562 155.382812 C 35.421875 154.425781 36.480469 153.601562 37.640625 152.921875 C 37.757812 152.851562 37.859375 152.765625 37.9375 152.65625 C 38.019531 152.550781 38.078125 152.429688 38.113281 152.300781 C 38.144531 152.167969 38.152344 152.035156 38.136719 151.902344 C 38.117188 151.769531 38.074219 151.644531 38.003906 151.527344 C 37.9375 151.410156 37.847656 151.3125 37.742188 151.230469 C 37.632812 151.148438 37.515625 151.089844 37.382812 151.058594 C 37.253906 151.023438 37.121094 151.015625 36.988281 151.035156 C 36.855469 151.054688 36.730469 151.097656 36.613281 151.164062 C 35.308594 151.929688 34.125 152.851562 33.058594 153.921875 C 31.996094 154.996094 31.085938 156.1875 30.332031 157.5 C 29.578125 158.808594 29 160.195312 28.609375 161.652344 C 28.214844 163.113281 28.011719 164.597656 28.003906 166.109375 C 28.003906 166.246094 28.027344 166.375 28.074219 166.503906 C 28.125 166.628906 28.199219 166.738281 28.292969 166.835938 C 28.386719 166.933594 28.496094 167.007812 28.621094 167.0625 C 28.746094 167.117188 28.875 167.144531 29.007812 167.144531 L 29.023438 167.144531 C 29.300781 167.144531 29.539062 167.046875 29.734375 166.851562 C 29.933594 166.65625 30.035156 166.421875 30.039062 166.144531 Z M 30.039062 166.144531 " fill-opacity="1" fill-rule="nonzero"/><path fill="#0048aa" d="M 34.109375 166.378906 C 34.09375 164.859375 34.367188 163.394531 34.929688 161.984375 C 35.492188 160.570312 36.304688 159.324219 37.367188 158.234375 C 38.414062 157.171875 39.625 156.355469 41.003906 155.78125 C 42.378906 155.207031 43.8125 154.925781 45.304688 154.933594 C 46.925781 154.933594 48.46875 155.269531 49.941406 155.941406 C 51.414062 156.613281 52.683594 157.558594 53.746094 158.777344 C 53.832031 158.886719 53.9375 158.972656 54.058594 159.035156 C 54.179688 159.101562 54.308594 159.140625 54.445312 159.152344 C 54.585938 159.164062 54.71875 159.148438 54.851562 159.105469 C 54.980469 159.0625 55.097656 158.996094 55.203125 158.90625 C 55.308594 158.816406 55.390625 158.707031 55.449219 158.582031 C 55.511719 158.460938 55.542969 158.328125 55.550781 158.191406 C 55.558594 158.054688 55.539062 157.917969 55.492188 157.789062 C 55.445312 157.660156 55.375 157.542969 55.28125 157.445312 C 54.023438 156 52.527344 154.882812 50.785156 154.089844 C 49.046875 153.296875 47.21875 152.898438 45.304688 152.898438 C 43.542969 152.890625 41.847656 153.230469 40.222656 153.910156 C 38.59375 154.589844 37.164062 155.558594 35.929688 156.816406 C 34.671875 158.097656 33.710938 159.574219 33.042969 161.238281 C 32.375 162.90625 32.054688 164.636719 32.074219 166.433594 C 31.984375 169.015625 31.351562 171.460938 30.171875 173.761719 L 29.601562 174.777344 C 29.527344 174.894531 29.480469 175.023438 29.460938 175.160156 C 29.441406 175.296875 29.449219 175.429688 29.484375 175.566406 C 29.519531 175.699219 29.578125 175.820312 29.664062 175.929688 C 29.746094 176.039062 29.847656 176.128906 29.96875 176.195312 C 30.089844 176.261719 30.21875 176.304688 30.355469 176.320312 C 30.492188 176.335938 30.628906 176.324219 30.761719 176.28125 C 30.894531 176.242188 31.011719 176.179688 31.117188 176.089844 C 31.226562 176.003906 31.308594 175.898438 31.371094 175.773438 L 31.972656 174.703125 C 33.320312 172.09375 34.035156 169.316406 34.109375 166.378906 Z M 34.109375 166.378906 " fill-opacity="1" fill-rule="nonzero"/><path fill="#0048aa" d="M 59.277344 174.105469 C 58.789062 171.648438 58.542969 169.164062 58.542969 166.660156 L 58.535156 166.128906 C 58.539062 164.617188 58.289062 163.148438 57.785156 161.722656 C 57.6875 161.464844 57.511719 161.277344 57.261719 161.160156 C 57.011719 161.046875 56.757812 161.03125 56.496094 161.125 C 56.234375 161.214844 56.042969 161.386719 55.921875 161.632812 C 55.796875 161.882812 55.78125 162.136719 55.867188 162.398438 C 56.292969 163.613281 56.503906 164.867188 56.503906 166.152344 L 56.515625 166.703125 C 56.519531 169.367188 56.785156 172.007812 57.320312 174.621094 L 58.484375 178.457031 C 58.546875 178.671875 58.671875 178.84375 58.851562 178.976562 C 59.03125 179.109375 59.234375 179.175781 59.457031 179.175781 C 59.621094 179.175781 59.773438 179.140625 59.917969 179.066406 C 60.0625 178.996094 60.179688 178.894531 60.277344 178.765625 C 60.375 178.636719 60.433594 178.492188 60.460938 178.332031 C 60.488281 178.171875 60.480469 178.015625 60.433594 177.863281 Z M 59.277344 174.105469 " fill-opacity="1" fill-rule="nonzero"/><path fill="#0048aa" d="M 56.511719 179.53125 C 55.230469 175.15625 54.546875 170.6875 54.464844 166.128906 C 54.460938 165.527344 54.394531 164.929688 54.273438 164.34375 C 54.148438 163.753906 53.96875 163.183594 53.734375 162.628906 C 53.5 162.074219 53.210938 161.550781 52.871094 161.054688 C 52.535156 160.554688 52.148438 160.097656 51.71875 159.675781 C 51.289062 159.253906 50.824219 158.878906 50.320312 158.550781 C 49.816406 158.222656 49.285156 157.945312 48.730469 157.71875 C 48.171875 157.496094 47.597656 157.328125 47.003906 157.214844 C 46.414062 157.101562 45.820312 157.050781 45.21875 157.054688 C 44.617188 157.0625 44.019531 157.125 43.433594 157.25 C 42.84375 157.371094 42.273438 157.550781 41.71875 157.789062 C 41.164062 158.023438 40.640625 158.308594 40.144531 158.648438 C 39.644531 158.988281 39.1875 159.371094 38.765625 159.800781 C 38.34375 160.230469 37.96875 160.699219 37.640625 161.199219 C 37.3125 161.703125 37.035156 162.234375 36.808594 162.792969 C 36.585938 163.351562 36.417969 163.925781 36.304688 164.515625 C 36.191406 165.105469 36.140625 165.703125 36.144531 166.304688 C 36.050781 168.632812 35.617188 170.898438 34.855469 173.101562 C 34.089844 175.300781 33.023438 177.347656 31.652344 179.234375 C 31.578125 179.34375 31.523438 179.464844 31.496094 179.597656 C 31.46875 179.730469 31.464844 179.863281 31.488281 179.996094 C 31.511719 180.128906 31.5625 180.25 31.632812 180.363281 C 31.707031 180.476562 31.800781 180.574219 31.910156 180.648438 C 32.019531 180.726562 32.144531 180.78125 32.273438 180.808594 C 32.40625 180.835938 32.539062 180.839844 32.671875 180.816406 C 32.804688 180.792969 32.925781 180.742188 33.042969 180.667969 C 33.15625 180.597656 33.25 180.503906 33.328125 180.394531 C 34.824219 178.335938 35.984375 176.101562 36.8125 173.695312 C 37.640625 171.289062 38.097656 168.8125 38.179688 166.269531 C 38.175781 165.800781 38.21875 165.339844 38.304688 164.878906 C 38.394531 164.417969 38.523438 163.972656 38.699219 163.539062 C 38.875 163.105469 39.089844 162.691406 39.347656 162.300781 C 39.605469 161.910156 39.898438 161.546875 40.226562 161.210938 C 40.554688 160.878906 40.910156 160.582031 41.296875 160.316406 C 41.683594 160.054688 42.09375 159.832031 42.523438 159.648438 C 42.953125 159.464844 43.398438 159.328125 43.855469 159.230469 C 44.316406 159.136719 44.777344 159.085938 45.246094 159.082031 C 45.714844 159.078125 46.179688 159.121094 46.636719 159.207031 C 47.097656 159.296875 47.542969 159.425781 47.976562 159.601562 C 48.410156 159.777344 48.824219 159.996094 49.214844 160.25 C 49.605469 160.507812 49.96875 160.800781 50.300781 161.128906 C 50.636719 161.457031 50.933594 161.816406 51.199219 162.203125 C 51.460938 162.589844 51.683594 162.996094 51.867188 163.429688 C 52.046875 163.859375 52.1875 164.304688 52.28125 164.761719 C 52.375 165.21875 52.425781 165.683594 52.429688 166.152344 C 52.515625 170.910156 53.230469 175.574219 54.574219 180.140625 L 55.515625 183.160156 C 55.582031 183.375 55.703125 183.546875 55.882812 183.679688 C 56.0625 183.8125 56.265625 183.878906 56.488281 183.878906 C 56.589844 183.878906 56.691406 183.863281 56.789062 183.832031 C 56.917969 183.792969 57.035156 183.730469 57.140625 183.644531 C 57.242188 183.558594 57.324219 183.453125 57.386719 183.335938 C 57.453125 183.214844 57.488281 183.089844 57.5 182.953125 C 57.511719 182.820312 57.5 182.6875 57.460938 182.558594 Z M 56.511719 179.53125 " fill-opacity="1" fill-rule="nonzero"/><g clip-path="url(#f17650ceae)"><path fill="#0048aa" d="M 50.394531 166.128906 C 50.394531 165.792969 50.359375 165.460938 50.292969 165.136719 C 50.226562 164.808594 50.128906 164.488281 50 164.179688 C 49.871094 163.875 49.710938 163.582031 49.523438 163.304688 C 49.339844 163.027344 49.125 162.769531 48.890625 162.535156 C 48.652344 162.300781 48.394531 162.089844 48.113281 161.90625 C 47.835938 161.722656 47.542969 161.566406 47.234375 161.4375 C 46.925781 161.3125 46.605469 161.21875 46.277344 161.152344 C 45.949219 161.089844 45.617188 161.058594 45.285156 161.058594 C 44.949219 161.0625 44.621094 161.09375 44.292969 161.160156 C 43.964844 161.226562 43.648438 161.328125 43.339844 161.457031 C 43.03125 161.585938 42.738281 161.742188 42.460938 161.929688 C 42.183594 162.117188 41.925781 162.328125 41.691406 162.566406 C 41.457031 162.804688 41.246094 163.0625 41.0625 163.339844 C 40.878906 163.617188 40.722656 163.910156 40.597656 164.222656 C 40.46875 164.53125 40.375 164.847656 40.3125 165.175781 C 40.246094 165.503906 40.214844 165.835938 40.21875 166.171875 C 40.105469 169.222656 39.519531 172.179688 38.453125 175.042969 C 37.386719 177.90625 35.898438 180.527344 33.988281 182.910156 C 33.824219 183.132812 33.757812 183.382812 33.796875 183.65625 C 33.835938 183.933594 33.964844 184.152344 34.1875 184.324219 C 34.40625 184.492188 34.652344 184.558594 34.929688 184.527344 C 35.207031 184.492188 35.429688 184.367188 35.601562 184.148438 C 37.667969 181.589844 39.265625 178.769531 40.40625 175.683594 C 41.542969 172.597656 42.160156 169.414062 42.253906 166.128906 C 42.253906 165.722656 42.332031 165.332031 42.488281 164.960938 C 42.644531 164.585938 42.867188 164.257812 43.15625 163.972656 C 43.441406 163.6875 43.773438 163.464844 44.148438 163.3125 C 44.523438 163.160156 44.914062 163.082031 45.316406 163.085938 C 45.722656 163.085938 46.113281 163.164062 46.484375 163.320312 C 46.859375 163.476562 47.1875 163.699219 47.472656 163.988281 C 47.757812 164.277344 47.976562 164.605469 48.132812 164.980469 C 48.285156 165.355469 48.359375 165.746094 48.359375 166.152344 C 48.253906 170.109375 47.523438 173.949219 46.167969 177.671875 C 44.816406 181.394531 42.90625 184.804688 40.445312 187.90625 C 40.28125 188.128906 40.214844 188.378906 40.253906 188.652344 C 40.292969 188.929688 40.421875 189.152344 40.640625 189.320312 C 40.863281 189.488281 41.109375 189.558594 41.386719 189.523438 C 41.660156 189.488281 41.886719 189.363281 42.058594 189.144531 C 44.660156 185.863281 46.675781 182.253906 48.101562 178.316406 C 49.527344 174.378906 50.292969 170.3125 50.394531 166.128906 Z M 50.394531 166.128906 " fill-opacity="1" fill-rule="nonzero"/></g><path fill="#0048aa" d="M 44.808594 171.199219 C 44.863281 171.207031 44.917969 171.210938 44.972656 171.210938 C 45.222656 171.210938 45.441406 171.128906 45.632812 170.96875 C 45.820312 170.804688 45.9375 170.601562 45.976562 170.355469 C 46.222656 168.941406 46.335938 167.515625 46.316406 166.082031 C 46.3125 165.945312 46.285156 165.816406 46.226562 165.691406 C 46.171875 165.570312 46.09375 165.460938 45.992188 165.371094 C 45.890625 165.277344 45.777344 165.210938 45.652344 165.164062 C 45.523438 165.121094 45.390625 165.101562 45.257812 165.109375 C 45.121094 165.117188 44.992188 165.148438 44.871094 165.203125 C 44.75 165.261719 44.644531 165.339844 44.550781 165.4375 C 44.460938 165.539062 44.390625 165.652344 44.347656 165.777344 C 44.300781 165.90625 44.28125 166.035156 44.285156 166.171875 C 44.296875 167.46875 44.1875 168.757812 43.964844 170.039062 C 43.945312 170.171875 43.949219 170.300781 43.980469 170.433594 C 44.011719 170.5625 44.066406 170.683594 44.148438 170.792969 C 44.226562 170.902344 44.324219 170.992188 44.4375 171.0625 C 44.550781 171.132812 44.675781 171.179688 44.808594 171.199219 Z M 44.808594 171.199219 " fill-opacity="1" fill-rule="nonzero"/><path fill="#0048aa" d="M 44.320312 173.320312 C 44.191406 173.28125 44.058594 173.269531 43.925781 173.285156 C 43.789062 173.300781 43.664062 173.339844 43.546875 173.402344 C 43.425781 173.46875 43.324219 173.550781 43.242188 173.65625 C 43.15625 173.761719 43.09375 173.878906 43.054688 174.007812 C 41.742188 178.402344 39.648438 182.382812 36.769531 185.953125 C 36.683594 186.058594 36.625 186.175781 36.585938 186.304688 C 36.546875 186.433594 36.539062 186.566406 36.550781 186.699219 C 36.566406 186.835938 36.605469 186.960938 36.671875 187.078125 C 36.738281 187.199219 36.824219 187.300781 36.929688 187.382812 C 37.035156 187.46875 37.152344 187.527344 37.28125 187.566406 C 37.410156 187.605469 37.542969 187.613281 37.675781 187.601562 C 37.808594 187.585938 37.9375 187.546875 38.054688 187.480469 C 38.171875 187.414062 38.273438 187.332031 38.359375 187.226562 C 41.402344 183.445312 43.621094 179.234375 45.007812 174.585938 C 45.046875 174.457031 45.058594 174.324219 45.042969 174.1875 C 45.03125 174.054688 44.992188 173.929688 44.925781 173.808594 C 44.863281 173.691406 44.777344 173.589844 44.671875 173.503906 C 44.566406 173.421875 44.449219 173.359375 44.320312 173.320312 Z M 44.320312 173.320312 " fill-opacity="1" fill-rule="nonzero"/><g clip-path="url(#002e014ef3)"><path fill="#0048aa" d="M 52.957031 181.617188 C 52.46875 180.160156 52.015625 178.609375 52.011719 178.609375 C 51.953125 178.402344 51.835938 178.234375 51.667969 178.101562 C 51.5 177.96875 51.308594 177.894531 51.097656 177.882812 C 50.882812 177.867188 50.683594 177.917969 50.5 178.03125 C 50.320312 178.144531 50.1875 178.300781 50.101562 178.496094 C 48.691406 181.765625 47.0625 184.925781 45.214844 187.96875 C 45.144531 188.082031 45.097656 188.207031 45.074219 188.339844 C 45.050781 188.472656 45.050781 188.605469 45.082031 188.738281 C 45.113281 188.867188 45.164062 188.988281 45.242188 189.101562 C 45.320312 189.210938 45.414062 189.300781 45.527344 189.375 C 45.644531 189.445312 45.765625 189.496094 45.898438 189.519531 C 46.03125 189.542969 46.164062 189.539062 46.296875 189.507812 C 46.425781 189.480469 46.550781 189.425781 46.660156 189.347656 C 46.769531 189.273438 46.863281 189.175781 46.933594 189.0625 C 48.390625 186.707031 49.703125 184.269531 50.867188 181.757812 C 50.921875 181.921875 50.976562 182.082031 51.03125 182.242188 L 52.253906 186.125 C 52.292969 186.253906 52.355469 186.371094 52.441406 186.476562 C 52.53125 186.578125 52.632812 186.660156 52.753906 186.722656 C 52.871094 186.789062 53 186.824219 53.136719 186.835938 C 53.269531 186.847656 53.402344 186.835938 53.53125 186.792969 C 53.660156 186.753906 53.777344 186.6875 53.878906 186.601562 C 53.984375 186.515625 54.066406 186.414062 54.128906 186.292969 C 54.191406 186.171875 54.226562 186.046875 54.238281 185.910156 C 54.25 185.777344 54.238281 185.644531 54.195312 185.515625 Z M 52.957031 181.617188 " fill-opacity="1" fill-rule="nonzero"/></g><g clip-path="url(#18208c9640)"><path fill="#000000" d="M 55.484375 144.753906 C 55.335938 144.753906 55.195312 144.722656 55.0625 144.664062 C 51.949219 143.308594 48.699219 142.660156 45.304688 142.71875 C 41.914062 142.65625 38.664062 143.300781 35.554688 144.660156 C 35.429688 144.722656 35.300781 144.757812 35.164062 144.765625 C 35.027344 144.773438 34.890625 144.753906 34.761719 144.707031 C 34.632812 144.664062 34.519531 144.59375 34.417969 144.5 C 34.316406 144.410156 34.234375 144.300781 34.175781 144.175781 C 34.121094 144.050781 34.089844 143.917969 34.085938 143.78125 C 34.082031 143.644531 34.101562 143.511719 34.152344 143.382812 C 34.203125 143.253906 34.273438 143.140625 34.371094 143.042969 C 34.464844 142.941406 34.578125 142.867188 34.703125 142.8125 C 38.082031 141.328125 41.617188 140.617188 45.304688 140.683594 C 48.992188 140.625 52.527344 141.332031 55.902344 142.8125 C 56.121094 142.910156 56.285156 143.066406 56.390625 143.28125 C 56.5 143.496094 56.527344 143.71875 56.476562 143.953125 C 56.425781 144.1875 56.308594 144.378906 56.121094 144.527344 C 55.933594 144.679688 55.722656 144.753906 55.484375 144.753906 Z M 55.484375 144.753906 " fill-opacity="1" fill-rule="nonzero"/></g><path fill="#000000" d="M 59.554688 152.898438 C 59.269531 152.898438 59.027344 152.796875 58.828125 152.59375 C 58.394531 152.136719 57.9375 151.703125 57.460938 151.292969 C 56.980469 150.878906 56.484375 150.496094 55.964844 150.132812 C 55.445312 149.773438 54.914062 149.441406 54.359375 149.132812 C 53.808594 148.828125 53.242188 148.550781 52.664062 148.300781 C 52.085938 148.054688 51.492188 147.835938 50.890625 147.644531 C 50.289062 147.457031 49.679688 147.300781 49.0625 147.171875 C 48.445312 147.046875 47.820312 146.949219 47.191406 146.886719 C 46.566406 146.820312 45.9375 146.789062 45.304688 146.789062 C 44.675781 146.789062 44.046875 146.820312 43.417969 146.886719 C 42.789062 146.949219 42.167969 147.046875 41.550781 147.171875 C 40.933594 147.300781 40.320312 147.457031 39.71875 147.644531 C 39.117188 147.835938 38.527344 148.054688 37.949219 148.300781 C 37.367188 148.550781 36.800781 148.828125 36.25 149.132812 C 35.699219 149.441406 35.164062 149.773438 34.648438 150.132812 C 34.128906 150.496094 33.628906 150.878906 33.152344 151.292969 C 32.671875 151.703125 32.214844 152.136719 31.78125 152.59375 C 31.582031 152.769531 31.347656 152.855469 31.078125 152.851562 C 30.8125 152.84375 30.582031 152.746094 30.390625 152.558594 C 30.203125 152.371094 30.101562 152.140625 30.089844 151.875 C 30.078125 151.605469 30.160156 151.371094 30.335938 151.167969 C 30.816406 150.664062 31.324219 150.183594 31.851562 149.730469 C 32.382812 149.277344 32.933594 148.851562 33.507812 148.453125 C 34.082031 148.054688 34.675781 147.6875 35.285156 147.347656 C 35.894531 147.007812 36.523438 146.703125 37.164062 146.429688 C 37.804688 146.152344 38.460938 145.914062 39.125 145.703125 C 39.792969 145.496094 40.46875 145.320312 41.152344 145.179688 C 41.835938 145.039062 42.523438 144.933594 43.21875 144.863281 C 43.914062 144.792969 44.609375 144.757812 45.308594 144.757812 C 46.003906 144.757812 46.703125 144.792969 47.398438 144.863281 C 48.089844 144.933594 48.78125 145.039062 49.464844 145.179688 C 50.148438 145.320312 50.824219 145.496094 51.488281 145.703125 C 52.15625 145.914062 52.808594 146.152344 53.453125 146.429688 C 54.09375 146.703125 54.71875 147.007812 55.328125 147.347656 C 55.941406 147.6875 56.53125 148.054688 57.105469 148.453125 C 57.679688 148.851562 58.230469 149.277344 58.761719 149.730469 C 59.292969 150.183594 59.796875 150.664062 60.28125 151.167969 C 60.421875 151.316406 60.511719 151.488281 60.550781 151.691406 C 60.589844 151.890625 60.570312 152.085938 60.488281 152.273438 C 60.410156 152.460938 60.285156 152.613281 60.117188 152.726562 C 59.945312 152.839844 59.757812 152.894531 59.554688 152.898438 Z M 59.554688 152.898438 " fill-opacity="1" fill-rule="nonzero"/><g clip-path="url(#f5318f7cd6)"><path fill="#000000" d="M 61.589844 167.144531 C 61.453125 167.144531 61.324219 167.117188 61.199219 167.066406 C 61.074219 167.015625 60.964844 166.941406 60.871094 166.847656 C 60.773438 166.75 60.699219 166.640625 60.648438 166.515625 C 60.597656 166.390625 60.570312 166.261719 60.570312 166.128906 C 60.570312 165.546875 60.539062 164.96875 60.472656 164.394531 C 60.40625 163.816406 60.304688 163.246094 60.175781 162.683594 C 60.042969 162.117188 59.878906 161.5625 59.6875 161.015625 C 59.492188 160.46875 59.265625 159.9375 59.011719 159.417969 C 58.757812 158.894531 58.472656 158.390625 58.160156 157.902344 C 57.847656 157.414062 57.507812 156.945312 57.140625 156.496094 C 56.777344 156.046875 56.386719 155.617188 55.972656 155.214844 C 55.554688 154.808594 55.121094 154.429688 54.664062 154.074219 C 54.203125 153.71875 53.726562 153.386719 53.230469 153.085938 C 52.738281 152.785156 52.226562 152.511719 51.699219 152.269531 C 51.171875 152.027344 50.636719 151.8125 50.085938 151.632812 C 49.535156 151.449219 48.976562 151.300781 48.40625 151.183594 C 47.839844 151.0625 47.269531 150.976562 46.691406 150.925781 C 46.113281 150.871094 45.535156 150.851562 44.957031 150.863281 C 44.375 150.875 43.796875 150.921875 43.222656 151 C 42.648438 151.078125 42.082031 151.1875 41.519531 151.332031 C 41.386719 151.367188 41.253906 151.378906 41.117188 151.359375 C 40.980469 151.34375 40.855469 151.300781 40.738281 151.230469 C 40.617188 151.164062 40.515625 151.074219 40.433594 150.964844 C 40.351562 150.855469 40.292969 150.734375 40.261719 150.601562 C 40.226562 150.46875 40.21875 150.335938 40.242188 150.199219 C 40.261719 150.0625 40.308594 149.9375 40.378906 149.820312 C 40.449219 149.703125 40.539062 149.605469 40.652344 149.523438 C 40.761719 149.445312 40.886719 149.390625 41.019531 149.359375 C 41.65625 149.195312 42.300781 149.070312 42.949219 148.984375 C 43.601562 148.894531 44.253906 148.84375 44.914062 148.828125 C 45.570312 148.8125 46.226562 148.835938 46.878906 148.898438 C 47.535156 148.957031 48.183594 149.054688 48.824219 149.1875 C 49.46875 149.324219 50.101562 149.492188 50.726562 149.699219 C 51.351562 149.90625 51.960938 150.144531 52.554688 150.421875 C 53.152344 150.695312 53.730469 151.003906 54.292969 151.347656 C 54.855469 151.6875 55.394531 152.0625 55.914062 152.464844 C 56.433594 152.867188 56.925781 153.296875 57.394531 153.757812 C 57.867188 154.21875 58.308594 154.703125 58.722656 155.210938 C 59.136719 155.722656 59.523438 156.253906 59.875 156.804688 C 60.230469 157.359375 60.550781 157.929688 60.839844 158.519531 C 61.128906 159.109375 61.386719 159.714844 61.605469 160.335938 C 61.824219 160.953125 62.011719 161.582031 62.160156 162.222656 C 62.308594 162.863281 62.417969 163.511719 62.492188 164.164062 C 62.570312 164.816406 62.605469 165.46875 62.605469 166.128906 C 62.605469 166.261719 62.582031 166.390625 62.53125 166.515625 C 62.476562 166.640625 62.40625 166.75 62.308594 166.847656 C 62.214844 166.941406 62.101562 167.015625 61.980469 167.066406 C 61.855469 167.117188 61.722656 167.144531 61.589844 167.144531 Z M 61.589844 167.144531 " fill-opacity="1" fill-rule="nonzero"/></g><path fill="#000000" d="M 29.023438 167.144531 L 29.007812 167.144531 C 28.875 167.144531 28.746094 167.113281 28.621094 167.0625 C 28.496094 167.007812 28.390625 166.933594 28.292969 166.835938 C 28.199219 166.738281 28.128906 166.628906 28.078125 166.5 C 28.03125 166.375 28.007812 166.246094 28.007812 166.109375 C 28.015625 164.597656 28.214844 163.113281 28.609375 161.652344 C 29.003906 160.195312 29.578125 158.808594 30.332031 157.5 C 31.089844 156.1875 31.996094 154.996094 33.0625 153.921875 C 34.125 152.847656 35.308594 151.929688 36.613281 151.164062 C 36.730469 151.09375 36.855469 151.050781 36.988281 151.03125 C 37.125 151.015625 37.253906 151.023438 37.386719 151.054688 C 37.515625 151.089844 37.636719 151.148438 37.742188 151.230469 C 37.851562 151.3125 37.9375 151.410156 38.007812 151.527344 C 38.074219 151.640625 38.117188 151.765625 38.136719 151.902344 C 38.15625 152.035156 38.148438 152.167969 38.113281 152.296875 C 38.078125 152.429688 38.023438 152.546875 37.941406 152.65625 C 37.859375 152.761719 37.761719 152.851562 37.644531 152.917969 C 36.480469 153.601562 35.425781 154.421875 34.480469 155.382812 C 33.070312 156.820312 31.980469 158.46875 31.214844 160.332031 C 30.445312 162.191406 30.054688 164.128906 30.039062 166.144531 C 30.035156 166.421875 29.933594 166.65625 29.734375 166.851562 C 29.539062 167.046875 29.300781 167.144531 29.023438 167.144531 Z M 29.023438 167.144531 " fill-opacity="1" fill-rule="nonzero"/><path fill="#000000" d="M 30.488281 176.304688 C 30.398438 176.304688 30.3125 176.292969 30.226562 176.269531 C 30.140625 176.246094 30.058594 176.214844 29.980469 176.167969 C 29.902344 176.125 29.832031 176.070312 29.769531 176.007812 C 29.707031 175.945312 29.652344 175.878906 29.609375 175.800781 C 29.5625 175.722656 29.53125 175.644531 29.507812 175.558594 C 29.484375 175.472656 29.46875 175.382812 29.46875 175.296875 C 29.46875 175.207031 29.480469 175.121094 29.5 175.035156 C 29.523438 174.949219 29.554688 174.867188 29.601562 174.789062 L 30.171875 173.769531 C 31.351562 171.46875 31.984375 169.027344 32.074219 166.441406 C 32.050781 164.644531 32.375 162.914062 33.042969 161.246094 C 33.710938 159.578125 34.671875 158.101562 35.929688 156.816406 C 37.164062 155.558594 38.59375 154.589844 40.222656 153.910156 C 41.847656 153.230469 43.542969 152.890625 45.304688 152.898438 C 47.21875 152.898438 49.042969 153.292969 50.785156 154.089844 C 52.527344 154.882812 54.023438 156 55.28125 157.441406 C 55.375 157.542969 55.445312 157.65625 55.492188 157.789062 C 55.539062 157.917969 55.558594 158.050781 55.550781 158.1875 C 55.542969 158.328125 55.511719 158.457031 55.449219 158.582031 C 55.390625 158.707031 55.308594 158.8125 55.203125 158.902344 C 55.097656 158.992188 54.980469 159.058594 54.851562 159.101562 C 54.71875 159.144531 54.585938 159.160156 54.445312 159.148438 C 54.308594 159.136719 54.179688 159.097656 54.058594 159.035156 C 53.9375 158.96875 53.832031 158.882812 53.746094 158.777344 C 52.683594 157.554688 51.414062 156.609375 49.941406 155.941406 C 48.46875 155.269531 46.925781 154.933594 45.304688 154.933594 C 43.8125 154.925781 42.378906 155.210938 41 155.785156 C 39.625 156.359375 38.414062 157.179688 37.367188 158.246094 C 36.304688 159.332031 35.492188 160.582031 34.929688 161.992188 C 34.367188 163.402344 34.09375 164.867188 34.109375 166.386719 C 34.035156 169.332031 33.324219 172.113281 31.972656 174.734375 L 31.371094 175.804688 C 31.175781 176.140625 30.878906 176.308594 30.488281 176.304688 Z M 30.488281 176.304688 " fill-opacity="1" fill-rule="nonzero"/><path fill="#000000" d="M 59.449219 179.175781 C 59.226562 179.175781 59.023438 179.109375 58.84375 178.976562 C 58.664062 178.84375 58.539062 178.667969 58.476562 178.453125 L 57.316406 174.621094 C 56.78125 172.007812 56.515625 169.367188 56.511719 166.699219 L 56.5 166.152344 C 56.503906 164.863281 56.289062 163.613281 55.863281 162.398438 C 55.777344 162.136719 55.796875 161.878906 55.917969 161.632812 C 56.039062 161.382812 56.230469 161.214844 56.492188 161.121094 C 56.753906 161.03125 57.007812 161.042969 57.261719 161.160156 C 57.511719 161.277344 57.683594 161.464844 57.78125 161.722656 C 58.285156 163.148438 58.539062 164.617188 58.535156 166.128906 L 58.546875 166.660156 C 58.546875 169.164062 58.792969 171.648438 59.28125 174.105469 L 60.429688 177.863281 C 60.476562 178.015625 60.484375 178.171875 60.457031 178.332031 C 60.429688 178.492188 60.371094 178.636719 60.273438 178.765625 C 60.175781 178.894531 60.058594 178.996094 59.914062 179.066406 C 59.769531 179.140625 59.617188 179.175781 59.453125 179.175781 Z M 59.449219 179.175781 " fill-opacity="1" fill-rule="nonzero"/><path fill="#000000" d="M 56.480469 183.878906 C 56.257812 183.878906 56.058594 183.816406 55.878906 183.683594 C 55.699219 183.550781 55.574219 183.378906 55.507812 183.164062 L 54.570312 180.144531 C 53.226562 175.574219 52.515625 170.914062 52.429688 166.152344 C 52.425781 165.6875 52.375 165.222656 52.28125 164.765625 C 52.1875 164.304688 52.046875 163.863281 51.867188 163.429688 C 51.683594 163 51.460938 162.589844 51.199219 162.203125 C 50.933594 161.816406 50.636719 161.460938 50.300781 161.132812 C 49.96875 160.804688 49.605469 160.511719 49.214844 160.253906 C 48.824219 159.996094 48.410156 159.78125 47.976562 159.605469 C 47.542969 159.429688 47.097656 159.296875 46.636719 159.210938 C 46.179688 159.125 45.714844 159.082031 45.246094 159.085938 C 44.777344 159.089844 44.316406 159.136719 43.855469 159.234375 C 43.398438 159.328125 42.953125 159.46875 42.523438 159.648438 C 42.09375 159.832031 41.683594 160.054688 41.296875 160.320312 C 40.910156 160.582031 40.554688 160.882812 40.226562 161.214844 C 39.898438 161.546875 39.605469 161.910156 39.347656 162.300781 C 39.089844 162.695312 38.875 163.105469 38.699219 163.539062 C 38.523438 163.972656 38.394531 164.421875 38.304688 164.878906 C 38.21875 165.339844 38.175781 165.804688 38.179688 166.273438 C 38.09375 168.816406 37.640625 171.289062 36.8125 173.695312 C 35.984375 176.101562 34.824219 178.335938 33.328125 180.394531 C 33.25 180.503906 33.15625 180.597656 33.042969 180.667969 C 32.925781 180.742188 32.804688 180.792969 32.671875 180.816406 C 32.539062 180.839844 32.40625 180.835938 32.273438 180.808594 C 32.144531 180.78125 32.019531 180.726562 31.910156 180.648438 C 31.800781 180.574219 31.707031 180.476562 31.632812 180.363281 C 31.5625 180.25 31.511719 180.128906 31.488281 179.996094 C 31.464844 179.863281 31.46875 179.730469 31.496094 179.597656 C 31.523438 179.464844 31.578125 179.34375 31.652344 179.234375 C 33.023438 177.347656 34.089844 175.300781 34.855469 173.101562 C 35.617188 170.898438 36.050781 168.632812 36.144531 166.304688 C 36.140625 165.703125 36.191406 165.105469 36.304688 164.515625 C 36.417969 163.925781 36.585938 163.351562 36.808594 162.792969 C 37.035156 162.234375 37.3125 161.703125 37.640625 161.199219 C 37.96875 160.699219 38.34375 160.230469 38.765625 159.800781 C 39.1875 159.371094 39.644531 158.988281 40.144531 158.648438 C 40.640625 158.308594 41.164062 158.023438 41.71875 157.789062 C 42.273438 157.550781 42.84375 157.371094 43.433594 157.25 C 44.019531 157.125 44.617188 157.0625 45.21875 157.054688 C 45.820312 157.050781 46.414062 157.101562 47.003906 157.214844 C 47.597656 157.328125 48.171875 157.496094 48.730469 157.71875 C 49.285156 157.945312 49.816406 158.222656 50.320312 158.550781 C 50.824219 158.878906 51.289062 159.253906 51.71875 159.675781 C 52.148438 160.097656 52.535156 160.554688 52.871094 161.054688 C 53.210938 161.550781 53.5 162.074219 53.734375 162.628906 C 53.96875 163.183594 54.148438 163.753906 54.273438 164.34375 C 54.394531 164.929688 54.460938 165.527344 54.464844 166.128906 C 54.546875 170.6875 55.230469 175.15625 56.515625 179.53125 L 57.460938 182.558594 C 57.5 182.6875 57.511719 182.820312 57.5 182.953125 C 57.488281 183.089844 57.453125 183.214844 57.386719 183.335938 C 57.324219 183.453125 57.242188 183.558594 57.136719 183.644531 C 57.035156 183.730469 56.917969 183.792969 56.789062 183.832031 C 56.691406 183.867188 56.585938 183.882812 56.480469 183.878906 Z M 56.480469 183.878906 " fill-opacity="1" fill-rule="nonzero"/><g clip-path="url(#7515512bd3)"><path fill="#000000" d="M 41.253906 189.535156 C 40.832031 189.535156 40.53125 189.347656 40.34375 188.972656 C 40.15625 188.597656 40.1875 188.242188 40.4375 187.90625 C 42.902344 184.804688 44.8125 181.394531 46.167969 177.671875 C 47.523438 173.949219 48.253906 170.109375 48.359375 166.152344 C 48.359375 165.746094 48.285156 165.355469 48.132812 164.980469 C 47.976562 164.605469 47.757812 164.277344 47.472656 163.988281 C 47.1875 163.699219 46.859375 163.476562 46.484375 163.320312 C 46.113281 163.164062 45.722656 163.085938 45.316406 163.085938 C 44.914062 163.082031 44.523438 163.160156 44.148438 163.3125 C 43.773438 163.464844 43.441406 163.6875 43.15625 163.972656 C 42.867188 164.257812 42.644531 164.585938 42.488281 164.960938 C 42.332031 165.332031 42.253906 165.722656 42.253906 166.128906 C 42.160156 169.414062 41.542969 172.597656 40.40625 175.683594 C 39.269531 178.769531 37.667969 181.589844 35.605469 184.148438 C 35.433594 184.367188 35.210938 184.492188 34.933594 184.527344 C 34.65625 184.558594 34.410156 184.492188 34.191406 184.324219 C 33.96875 184.152344 33.839844 183.933594 33.800781 183.65625 C 33.761719 183.382812 33.828125 183.132812 33.992188 182.910156 C 35.902344 180.527344 37.390625 177.90625 38.457031 175.042969 C 39.519531 172.179688 40.105469 169.222656 40.21875 166.171875 C 40.214844 165.835938 40.246094 165.503906 40.3125 165.175781 C 40.375 164.847656 40.46875 164.53125 40.597656 164.222656 C 40.722656 163.910156 40.878906 163.617188 41.0625 163.339844 C 41.246094 163.0625 41.457031 162.800781 41.691406 162.566406 C 41.925781 162.328125 42.183594 162.117188 42.460938 161.929688 C 42.738281 161.742188 43.03125 161.585938 43.339844 161.457031 C 43.648438 161.328125 43.964844 161.226562 44.292969 161.160156 C 44.621094 161.09375 44.949219 161.0625 45.285156 161.058594 C 45.617188 161.058594 45.949219 161.089844 46.277344 161.152344 C 46.605469 161.21875 46.925781 161.3125 47.234375 161.4375 C 47.542969 161.566406 47.835938 161.722656 48.113281 161.90625 C 48.394531 162.089844 48.652344 162.300781 48.890625 162.535156 C 49.125 162.769531 49.339844 163.027344 49.523438 163.304688 C 49.710938 163.582031 49.871094 163.875 50 164.179688 C 50.128906 164.488281 50.226562 164.808594 50.292969 165.136719 C 50.359375 165.460938 50.394531 165.792969 50.394531 166.128906 C 50.289062 170.3125 49.523438 174.371094 48.101562 178.304688 C 46.675781 182.242188 44.664062 185.847656 42.0625 189.128906 C 41.859375 189.398438 41.589844 189.535156 41.253906 189.535156 Z M 41.253906 189.535156 " fill-opacity="1" fill-rule="nonzero"/></g><path fill="#000000" d="M 44.972656 171.214844 C 44.917969 171.214844 44.863281 171.210938 44.808594 171.203125 C 44.675781 171.183594 44.550781 171.136719 44.4375 171.066406 C 44.320312 170.996094 44.222656 170.90625 44.144531 170.796875 C 44.066406 170.6875 44.011719 170.566406 43.980469 170.433594 C 43.949219 170.304688 43.941406 170.171875 43.964844 170.039062 C 44.1875 168.757812 44.296875 167.46875 44.285156 166.171875 C 44.28125 166.035156 44.300781 165.90625 44.347656 165.777344 C 44.390625 165.652344 44.460938 165.539062 44.550781 165.4375 C 44.644531 165.339844 44.75 165.261719 44.871094 165.203125 C 44.992188 165.148438 45.121094 165.117188 45.257812 165.109375 C 45.394531 165.097656 45.527344 165.113281 45.65625 165.15625 C 45.785156 165.199219 45.898438 165.269531 46 165.359375 C 46.101562 165.453125 46.179688 165.5625 46.234375 165.6875 C 46.289062 165.8125 46.316406 165.941406 46.316406 166.078125 C 46.335938 167.515625 46.222656 168.9375 45.976562 170.351562 C 45.9375 170.601562 45.824219 170.804688 45.632812 170.96875 C 45.441406 171.132812 45.222656 171.214844 44.972656 171.214844 Z M 44.972656 171.214844 " fill-opacity="1" fill-rule="nonzero"/><path fill="#000000" d="M 37.570312 187.609375 C 37.144531 187.609375 36.839844 187.414062 36.652344 187.03125 C 36.46875 186.648438 36.507812 186.289062 36.773438 185.953125 C 39.652344 182.386719 41.75 178.402344 43.0625 174.011719 C 43.144531 173.746094 43.308594 173.546875 43.554688 173.414062 C 43.800781 173.285156 44.054688 173.257812 44.320312 173.335938 C 44.589844 173.414062 44.789062 173.578125 44.925781 173.820312 C 45.058594 174.0625 45.089844 174.320312 45.015625 174.585938 C 43.625 179.234375 41.410156 183.449219 38.363281 187.226562 C 38.160156 187.480469 37.894531 187.609375 37.570312 187.609375 Z M 37.570312 187.609375 " fill-opacity="1" fill-rule="nonzero"/><g clip-path="url(#1b0e11c6f7)"><path fill="#000000" d="M 46.066406 189.535156 C 45.664062 189.535156 45.367188 189.359375 45.171875 189.007812 C 44.980469 188.65625 44.992188 188.308594 45.207031 187.96875 C 47.054688 184.925781 48.683594 181.765625 50.09375 178.496094 C 50.171875 178.296875 50.304688 178.140625 50.488281 178.027344 C 50.671875 177.914062 50.871094 177.867188 51.085938 177.886719 C 51.300781 177.898438 51.492188 177.972656 51.660156 178.105469 C 51.828125 178.238281 51.945312 178.410156 52.003906 178.613281 C 52.003906 178.613281 52.460938 180.167969 52.949219 181.625 L 54.171875 185.523438 C 54.210938 185.652344 54.226562 185.785156 54.214844 185.921875 C 54.203125 186.054688 54.164062 186.183594 54.101562 186.300781 C 54.039062 186.421875 53.957031 186.523438 53.855469 186.613281 C 53.75 186.699219 53.632812 186.761719 53.503906 186.800781 C 53.375 186.84375 53.246094 186.855469 53.109375 186.84375 C 52.976562 186.832031 52.847656 186.796875 52.730469 186.734375 C 52.609375 186.671875 52.503906 186.589844 52.417969 186.484375 C 52.332031 186.382812 52.269531 186.265625 52.226562 186.136719 L 51.007812 182.253906 C 50.953125 182.09375 50.898438 181.929688 50.84375 181.769531 C 49.6875 184.277344 48.382812 186.710938 46.933594 189.066406 C 46.730469 189.382812 46.441406 189.539062 46.066406 189.535156 Z M 46.066406 189.535156 " fill-opacity="1" fill-rule="nonzero"/></g><g fill="#000000" fill-opacity="1"><g transform="translate(138.412788, 187.012789)"><g><path d="M 14.53125 0 L 4.46875 0 L 4.46875 -38.546875 L 14.53125 -38.546875 Z M 14.53125 0 "/></g></g></g><g fill="#000000" fill-opacity="1"><g transform="translate(155.956182, 187.012789)"><g><path d="M 22.859375 -20.5625 L 39.84375 -20.5625 L 39.84375 0 L 32.015625 0 L 31.0625 -5.921875 L 29.390625 -1.671875 C 28.304688 -0.742188 27.066406 -0.101562 25.671875 0.25 C 24.273438 0.601562 22.550781 0.78125 20.5 0.78125 C 17.070312 0.78125 14.046875 0.0351562 11.421875 -1.453125 C 8.796875 -2.941406 6.738281 -5.15625 5.25 -8.09375 C 3.757812 -11.039062 3.015625 -14.675781 3.015625 -19 C 3.015625 -22.351562 3.535156 -25.296875 4.578125 -27.828125 C 5.617188 -30.359375 7.039062 -32.476562 8.84375 -34.1875 C 10.65625 -35.90625 12.742188 -37.191406 15.109375 -38.046875 C 17.472656 -38.910156 19.976562 -39.34375 22.625 -39.34375 C 26.3125 -39.34375 29.394531 -38.742188 31.875 -37.546875 C 34.351562 -36.359375 36.269531 -34.75 37.625 -32.71875 C 38.988281 -30.6875 39.800781 -28.40625 40.0625 -25.875 L 40.125 -25.3125 L 30.0625 -25.3125 L 29.953125 -25.875 C 29.128906 -29.925781 26.648438 -31.953125 22.515625 -31.953125 C 20.878906 -31.953125 19.378906 -31.503906 18.015625 -30.609375 C 16.660156 -29.722656 15.570312 -28.363281 14.75 -26.53125 C 13.925781 -24.707031 13.515625 -22.398438 13.515625 -19.609375 C 13.515625 -16.367188 13.929688 -13.796875 14.765625 -11.890625 C 15.609375 -9.992188 16.707031 -8.632812 18.0625 -7.8125 C 19.425781 -7 20.894531 -6.59375 22.46875 -6.59375 C 24.4375 -6.59375 26.0625 -7.082031 27.34375 -8.0625 C 28.632812 -9.050781 29.632812 -10.609375 30.34375 -12.734375 L 22.859375 -12.734375 Z M 22.859375 -20.5625 "/></g></g></g><g fill="#000000" fill-opacity="1"><g transform="translate(198.362037, 187.012789)"><g><path d="M 14.53125 0 L 4.46875 0 L 4.46875 -38.546875 L 14.53125 -38.546875 Z M 14.53125 0 "/></g></g></g><g fill="#000000" fill-opacity="1"><g transform="translate(215.905431, 187.012789)"><g><path d="M 35.875 -30.734375 L 23.359375 -30.734375 L 23.359375 0 L 13.296875 0 L 13.296875 -30.734375 L 0.78125 -30.734375 L 0.78125 -38.546875 L 35.875 -38.546875 Z M 35.875 -30.734375 "/></g></g></g><g fill="#000000" fill-opacity="1"><g transform="translate(251.215712, 187.012789)"><g><path d="M 26.15625 -10 L 14.140625 -10 L 10.890625 0 L 0.21875 0 L 14.140625 -38.546875 L 26.421875 -38.546875 L 40.34375 0 L 29.390625 0 Z M 20.171875 -29.671875 L 16.59375 -17.828125 L 23.75 -17.828125 Z M 20.171875 -29.671875 "/></g></g></g><g fill="#000000" fill-opacity="1"><g transform="translate(290.716281, 187.012789)"><g><path d="M 34.03125 -8.5 L 34.03125 0 L 4.46875 0 L 4.46875 -38.546875 L 14.53125 -38.546875 L 14.53125 -8.5 Z M 34.03125 -8.5 "/></g></g></g><g fill="#000000" fill-opacity="1"><g transform="translate(119.248061, 217.251933)"><g><path d="M 3.015625 -4.0625 L 7.03125 -4.0625 L 5.03125 -9.15625 Z M 9.875 0 L 8.640625 0 L 7.453125 -3.015625 L 2.59375 -3.015625 L 1.40625 0 L 0.15625 0 L 5.03125 -11.828125 Z M 9.875 0 "/></g></g></g><g fill="#000000" fill-opacity="1"><g transform="translate(131.477993, 217.251933)"><g><path d="M 9.8125 -5.53125 C 9.8125 -4.726562 9.664062 -3.988281 9.375 -3.3125 C 9.0625 -2.632812 8.65625 -2.050781 8.15625 -1.5625 C 7.644531 -1.070312 7.039062 -0.691406 6.34375 -0.421875 C 5.644531 -0.140625 4.898438 0 4.109375 0 L 1.21875 0 L 1.21875 -11.0625 L 4.109375 -11.0625 C 4.898438 -11.0625 5.644531 -10.925781 6.34375 -10.65625 C 7.039062 -10.375 7.644531 -9.988281 8.15625 -9.5 C 8.65625 -9.007812 9.0625 -8.429688 9.375 -7.765625 C 9.664062 -7.078125 9.8125 -6.332031 9.8125 -5.53125 Z M 8.703125 -5.53125 C 8.703125 -6.789062 8.257812 -7.84375 7.375 -8.6875 C 6.5 -9.507812 5.421875 -9.921875 4.140625 -9.921875 L 2.359375 -9.921875 L 2.359375 -1.140625 L 4.140625 -1.140625 C 5.421875 -1.140625 6.5 -1.550781 7.375 -2.375 C 8.257812 -3.21875 8.703125 -4.269531 8.703125 -5.53125 Z M 8.703125 -5.53125 "/></g></g></g><g fill="#000000" fill-opacity="1"><g transform="translate(144.211967, 217.251933)"><g><path d="M 11.421875 0 L 9.6875 -7.875 L 6.375 0.65625 L 3.046875 -7.875 L 1.328125 0 L 0.15625 0 L 2.75 -11.796875 L 6.375 -2.328125 L 10 -11.796875 L 12.578125 0 Z M 11.421875 0 "/></g></g></g><g fill="#000000" fill-opacity="1"><g transform="translate(159.140984, 217.251933)"><g><path d="M 2.359375 0 L 1.21875 0 L 1.21875 -11.0625 L 2.359375 -11.0625 Z M 2.359375 0 "/></g></g></g><g fill="#000000" fill-opacity="1"><g transform="translate(164.91586, 217.251933)"><g><path d="M 2.359375 -8.15625 L 2.359375 0 L 1.21875 0 L 1.21875 -11.765625 L 7.4375 -2.921875 L 7.4375 -11.0625 L 8.578125 -11.0625 L 8.578125 0.6875 Z M 2.359375 -8.15625 "/></g></g></g><g fill="#000000" fill-opacity="1"><g transform="translate(176.9019, 217.251933)"><g><path d="M 2.359375 0 L 1.21875 0 L 1.21875 -11.0625 L 2.359375 -11.0625 Z M 2.359375 0 "/></g></g></g><g fill="#000000" fill-opacity="1"><g transform="translate(182.676773, 217.251933)"><g><path d="M 4.296875 -5.21875 C 2.035156 -5.738281 0.90625 -6.703125 0.90625 -8.109375 C 0.90625 -9.148438 1.269531 -9.929688 2 -10.453125 C 2.726562 -10.960938 3.578125 -11.21875 4.546875 -11.21875 C 6.710938 -11.21875 7.992188 -10.414062 8.390625 -8.8125 L 7.15625 -8.8125 C 6.9375 -9.769531 6.066406 -10.25 4.546875 -10.25 C 3.484375 -10.25 2.742188 -9.929688 2.328125 -9.296875 C 2.160156 -9.066406 2.078125 -8.769531 2.078125 -8.40625 C 2.078125 -7.726562 2.445312 -7.203125 3.1875 -6.828125 C 3.53125 -6.648438 4.269531 -6.410156 5.40625 -6.109375 C 6.53125 -5.816406 7.347656 -5.492188 7.859375 -5.140625 C 8.554688 -4.640625 8.90625 -3.941406 8.90625 -3.046875 C 8.90625 -1.921875 8.46875 -1.070312 7.59375 -0.5 C 6.851562 -0.0195312 5.941406 0.21875 4.859375 0.21875 C 2.410156 0.21875 0.992188 -0.71875 0.609375 -2.59375 L 1.953125 -2.59375 C 2.160156 -1.414062 3.128906 -0.828125 4.859375 -0.828125 C 6.097656 -0.828125 6.960938 -1.171875 7.453125 -1.859375 C 7.648438 -2.128906 7.75 -2.492188 7.75 -2.953125 C 7.75 -3.410156 7.566406 -3.785156 7.203125 -4.078125 C 6.691406 -4.492188 5.722656 -4.875 4.296875 -5.21875 Z M 4.296875 -5.21875 "/></g></g></g><g fill="#000000" fill-opacity="1"><g transform="translate(194.207541, 217.251933)"><g><path d="M 0.328125 -10.03125 L 0.328125 -11.09375 L 6.828125 -11.09375 L 6.828125 -10.03125 L 4.140625 -10.03125 L 4.140625 -0.03125 L 3.015625 -0.03125 L 3.015625 -10.03125 Z M 0.328125 -10.03125 "/></g></g></g><g fill="#000000" fill-opacity="1"><g transform="translate(203.559522, 217.251933)"><g><path d="M 2.359375 -5.46875 L 4.921875 -5.46875 C 5.566406 -5.46875 6.09375 -5.679688 6.5 -6.109375 C 6.925781 -6.554688 7.140625 -7.109375 7.140625 -7.765625 C 7.140625 -8.398438 6.9375 -8.929688 6.53125 -9.359375 C 6.132812 -9.765625 5.597656 -9.96875 4.921875 -9.96875 L 2.359375 -9.96875 Z M 8.28125 -7.71875 C 8.28125 -6.757812 7.9375 -5.957031 7.25 -5.3125 C 6.644531 -4.75 5.914062 -4.441406 5.0625 -4.390625 L 8.453125 0 L 6.921875 0 L 3.6875 -4.375 L 2.359375 -4.375 L 2.359375 0 L 1.21875 0 L 1.21875 -11.0625 L 4.765625 -11.0625 C 5.753906 -11.0625 6.582031 -10.753906 7.25 -10.140625 C 7.9375 -9.484375 8.28125 -8.675781 8.28125 -7.71875 Z M 8.28125 -7.71875 "/></g></g></g><g fill="#000000" fill-opacity="1"><g transform="translate(214.602506, 217.251933)"><g><path d="M 3.015625 -4.0625 L 7.03125 -4.0625 L 5.03125 -9.15625 Z M 9.875 0 L 8.640625 0 L 7.453125 -3.015625 L 2.59375 -3.015625 L 1.40625 0 L 0.15625 0 L 5.03125 -11.828125 Z M 9.875 0 "/></g></g></g><g fill="#000000" fill-opacity="1"><g transform="translate(226.832435, 217.251933)"><g><path d="M 0.328125 -10.03125 L 0.328125 -11.09375 L 6.828125 -11.09375 L 6.828125 -10.03125 L 4.140625 -10.03125 L 4.140625 -0.03125 L 3.015625 -0.03125 L 3.015625 -10.03125 Z M 0.328125 -10.03125 "/></g></g></g><g fill="#000000" fill-opacity="1"><g transform="translate(236.184416, 217.251933)"><g><path d="M 10.96875 -5.5625 C 10.96875 -6.8125 10.519531 -7.878906 9.625 -8.765625 C 8.738281 -9.648438 7.664062 -10.09375 6.40625 -10.09375 C 5.15625 -10.09375 4.085938 -9.648438 3.203125 -8.765625 C 2.316406 -7.878906 1.875 -6.8125 1.875 -5.5625 C 1.875 -4.300781 2.316406 -3.226562 3.203125 -2.34375 C 4.085938 -1.457031 5.15625 -1.015625 6.40625 -1.015625 C 7.664062 -1.015625 8.738281 -1.457031 9.625 -2.34375 C 10.519531 -3.226562 10.96875 -4.300781 10.96875 -5.5625 Z M 12.109375 -5.5625 C 12.109375 -4.78125 11.957031 -4.039062 11.65625 -3.34375 C 11.351562 -2.65625 10.945312 -2.054688 10.4375 -1.546875 C 9.914062 -1.023438 9.3125 -0.617188 8.625 -0.328125 C 7.925781 -0.0234375 7.1875 0.125 6.40625 0.125 C 5.625 0.125 4.894531 -0.0234375 4.21875 -0.328125 C 3.519531 -0.617188 2.914062 -1.023438 2.40625 -1.546875 C 1.882812 -2.054688 1.476562 -2.65625 1.1875 -3.34375 C 0.882812 -4.039062 0.734375 -4.78125 0.734375 -5.5625 C 0.734375 -6.34375 0.882812 -7.082031 1.1875 -7.78125 C 1.476562 -8.46875 1.882812 -9.066406 2.40625 -9.578125 C 2.914062 -10.085938 3.519531 -10.492188 4.21875 -10.796875 C 4.894531 -11.085938 5.625 -11.234375 6.40625 -11.234375 C 7.1875 -11.234375 7.925781 -11.085938 8.625 -10.796875 C 9.3125 -10.492188 9.914062 -10.085938 10.4375 -9.578125 C 10.945312 -9.066406 11.351562 -8.46875 11.65625 -7.78125 C 11.957031 -7.082031 12.109375 -6.34375 12.109375 -5.5625 Z M 12.109375 -5.5625 "/></g></g></g><g fill="#000000" fill-opacity="1"><g transform="translate(251.210991, 217.251933)"><g><path d="M 2.359375 -5.46875 L 4.921875 -5.46875 C 5.566406 -5.46875 6.09375 -5.679688 6.5 -6.109375 C 6.925781 -6.554688 7.140625 -7.109375 7.140625 -7.765625 C 7.140625 -8.398438 6.9375 -8.929688 6.53125 -9.359375 C 6.132812 -9.765625 5.597656 -9.96875 4.921875 -9.96875 L 2.359375 -9.96875 Z M 8.28125 -7.71875 C 8.28125 -6.757812 7.9375 -5.957031 7.25 -5.3125 C 6.644531 -4.75 5.914062 -4.441406 5.0625 -4.390625 L 8.453125 0 L 6.921875 0 L 3.6875 -4.375 L 2.359375 -4.375 L 2.359375 0 L 1.21875 0 L 1.21875 -11.0625 L 4.765625 -11.0625 C 5.753906 -11.0625 6.582031 -10.753906 7.25 -10.140625 C 7.9375 -9.484375 8.28125 -8.675781 8.28125 -7.71875 Z M 8.28125 -7.71875 "/></g></g></g></svg>