<svg xmlns="http://www.w3.org/2000/svg" xmlns:xlink="http://www.w3.org/1999/xlink" width="500" zoomAndPan="magnify" viewBox="0 0 375 374.999991" height="500" preserveAspectRatio="xMidYMid meet" version="1.0"><defs><g/><clipPath id="ae888fa297"><path d="M 88.023438 141.671875 L 138.273438 141.671875 L 138.273438 200.921875 L 88.023438 200.921875 Z M 88.023438 141.671875 " clip-rule="nonzero"/></clipPath><clipPath id="944c6234e4"><path d="M 68.59375 141.671875 L 82 141.671875 L 82 155 L 68.59375 155 Z M 68.59375 141.671875 " clip-rule="nonzero"/></clipPath><clipPath id="441d04b2c8"><path d="M 68.59375 160 L 82.09375 160 L 82.09375 200.921875 L 68.59375 200.921875 Z M 68.59375 160 " clip-rule="nonzero"/></clipPath><clipPath id="e727f20ceb"><path d="M 34 146.871094 L 57 146.871094 L 57 151 L 34 151 Z M 34 146.871094 " clip-rule="nonzero"/></clipPath><clipPath id="e6c3ed7673"><path d="M 40 155 L 62.421875 155 L 62.421875 174 L 40 174 Z M 40 155 " clip-rule="nonzero"/></clipPath><clipPath id="c03dc153e8"><path d="M 33 167 L 51 167 L 51 195.621094 L 33 195.621094 Z M 33 167 " clip-rule="nonzero"/></clipPath><clipPath id="ee175e3c82"><path d="M 45 184 L 55 184 L 55 195.621094 L 45 195.621094 Z M 45 184 " clip-rule="nonzero"/></clipPath><clipPath id="514aff4aa5"><path d="M 34 146.871094 L 57 146.871094 L 57 151 L 34 151 Z M 34 146.871094 " clip-rule="nonzero"/></clipPath><clipPath id="70f2f00d05"><path d="M 40 155 L 62.421875 155 L 62.421875 174 L 40 174 Z M 40 155 " clip-rule="nonzero"/></clipPath><clipPath id="c9f08122e2"><path d="M 33 167 L 51 167 L 51 195.621094 L 33 195.621094 Z M 33 167 " clip-rule="nonzero"/></clipPath><clipPath id="98cbf498fe"><path d="M 45 184 L 55 184 L 55 195.621094 L 45 195.621094 Z M 45 184 " clip-rule="nonzero"/></clipPath></defs><g clip-path="url(#ae888fa297)"><path fill="#032d6c" d="M 99.285156 189.875 L 108.554688 189.875 C 118.769531 189.875 127.050781 181.59375 127.050781 171.375 C 127.050781 161.160156 118.769531 152.878906 108.554688 152.878906 L 88.160156 152.835938 L 88.160156 141.660156 L 108.554688 141.660156 C 124.964844 141.660156 138.265625 154.964844 138.265625 171.375 C 138.265625 187.785156 124.964844 201.089844 108.554688 201.089844 L 88.160156 201.089844 L 88.160156 155.722656 L 99.285156 155.722656 L 99.285156 189.875 " fill-opacity="1" fill-rule="nonzero"/></g><g clip-path="url(#944c6234e4)"><path fill="#032d6c" d="M 69.402344 154.203125 C 68.988281 153.785156 68.742188 153.261719 68.742188 152.636719 L 68.742188 143.96875 C 68.742188 142.683594 69.71875 141.707031 71.003906 141.707031 L 79.671875 141.707031 C 80.261719 141.671875 80.820312 141.949219 81.238281 142.367188 C 81.65625 142.785156 81.898438 143.378906 81.933594 143.96875 L 81.933594 152.636719 C 81.933594 153.890625 80.925781 154.898438 79.671875 154.898438 L 71.003906 154.898438 C 70.414062 154.863281 69.820312 154.65625 69.402344 154.203125 Z M 69.402344 154.203125 " fill-opacity="1" fill-rule="evenodd"/></g><g clip-path="url(#441d04b2c8)"><path fill="#032d6c" d="M 81.34375 201.121094 L 69.300781 201.121094 C 68.917969 201.121094 68.605469 200.808594 68.605469 200.425781 L 68.605469 161.304688 C 68.605469 160.921875 68.917969 160.605469 69.300781 160.605469 L 81.34375 160.605469 C 81.761719 160.605469 82.074219 160.921875 82.074219 161.304688 L 82.074219 200.425781 C 82.109375 200.808594 81.761719 201.121094 81.34375 201.121094 Z M 81.34375 201.121094 " fill-opacity="1" fill-rule="evenodd"/></g><g clip-path="url(#e727f20ceb)"><path fill="#0048aa" d="M 35.554688 150.847656 C 38.664062 149.488281 41.914062 148.84375 45.304688 148.90625 C 48.699219 148.847656 51.949219 149.496094 55.0625 150.851562 C 55.183594 150.910156 55.316406 150.945312 55.453125 150.949219 C 55.589844 150.957031 55.722656 150.9375 55.851562 150.890625 C 55.980469 150.84375 56.09375 150.773438 56.195312 150.683594 C 56.292969 150.589844 56.375 150.480469 56.429688 150.355469 C 56.488281 150.230469 56.515625 150.101562 56.519531 149.964844 C 56.523438 149.828125 56.503906 149.695312 56.453125 149.566406 C 56.402344 149.4375 56.332031 149.324219 56.234375 149.226562 C 56.140625 149.128906 56.03125 149.050781 55.902344 149 C 52.527344 147.519531 48.992188 146.8125 45.304688 146.871094 C 41.617188 146.804688 38.082031 147.515625 34.703125 149 C 34.578125 149.054688 34.46875 149.128906 34.371094 149.230469 C 34.277344 149.328125 34.203125 149.441406 34.15625 149.570312 C 34.105469 149.699219 34.082031 149.832031 34.085938 149.96875 C 34.089844 150.105469 34.121094 150.238281 34.179688 150.363281 C 34.238281 150.488281 34.316406 150.597656 34.417969 150.6875 C 34.519531 150.78125 34.636719 150.851562 34.765625 150.894531 C 34.894531 150.941406 35.027344 150.960938 35.164062 150.953125 C 35.300781 150.945312 35.433594 150.910156 35.554688 150.847656 Z M 35.554688 150.847656 " fill-opacity="1" fill-rule="nonzero"/></g><path fill="#0048aa" d="M 31.78125 158.78125 C 32.214844 158.324219 32.671875 157.890625 33.152344 157.480469 C 33.628906 157.070312 34.128906 156.683594 34.648438 156.324219 C 35.164062 155.964844 35.699219 155.628906 36.25 155.324219 C 36.800781 155.019531 37.367188 154.742188 37.949219 154.492188 C 38.527344 154.242188 39.117188 154.023438 39.71875 153.835938 C 40.320312 153.644531 40.933594 153.488281 41.550781 153.363281 C 42.167969 153.234375 42.789062 153.140625 43.417969 153.074219 C 44.046875 153.011719 44.675781 152.980469 45.304688 152.980469 C 45.9375 152.980469 46.566406 153.011719 47.191406 153.074219 C 47.820312 153.140625 48.445312 153.234375 49.0625 153.363281 C 49.679688 153.488281 50.289062 153.644531 50.890625 153.835938 C 51.492188 154.023438 52.085938 154.242188 52.664062 154.492188 C 53.242188 154.742188 53.808594 155.019531 54.359375 155.324219 C 54.914062 155.628906 55.445312 155.964844 55.964844 156.324219 C 56.484375 156.683594 56.980469 157.070312 57.460938 157.480469 C 57.9375 157.890625 58.394531 158.324219 58.828125 158.78125 C 59.027344 158.96875 59.265625 159.0625 59.539062 159.058594 C 59.808594 159.054688 60.042969 158.957031 60.238281 158.765625 C 60.433594 158.574219 60.535156 158.34375 60.542969 158.070312 C 60.550781 157.796875 60.464844 157.558594 60.28125 157.359375 C 59.796875 156.851562 59.292969 156.375 58.761719 155.917969 C 58.230469 155.464844 57.679688 155.039062 57.105469 154.640625 C 56.53125 154.242188 55.941406 153.875 55.328125 153.539062 C 54.71875 153.199219 54.09375 152.894531 53.453125 152.617188 C 52.808594 152.34375 52.15625 152.101562 51.488281 151.894531 C 50.824219 151.683594 50.148438 151.511719 49.464844 151.371094 C 48.78125 151.230469 48.089844 151.125 47.398438 151.054688 C 46.703125 150.984375 46.003906 150.949219 45.308594 150.949219 C 44.609375 150.949219 43.914062 150.984375 43.21875 151.054688 C 42.523438 151.125 41.835938 151.230469 41.152344 151.371094 C 40.46875 151.511719 39.792969 151.683594 39.125 151.894531 C 38.460938 152.101562 37.804688 152.34375 37.164062 152.617188 C 36.523438 152.894531 35.894531 153.199219 35.285156 153.539062 C 34.675781 153.875 34.082031 154.242188 33.507812 154.640625 C 32.933594 155.039062 32.382812 155.464844 31.851562 155.917969 C 31.324219 156.375 30.816406 156.851562 30.335938 157.359375 C 30.160156 157.5625 30.078125 157.796875 30.089844 158.0625 C 30.101562 158.332031 30.203125 158.558594 30.390625 158.746094 C 30.582031 158.933594 30.8125 159.03125 31.078125 159.039062 C 31.347656 159.046875 31.582031 158.960938 31.78125 158.78125 Z M 31.78125 158.78125 " fill-opacity="1" fill-rule="nonzero"/><g clip-path="url(#e6c3ed7673)"><path fill="#0048aa" d="M 45.304688 155.011719 C 43.859375 155.011719 42.433594 155.191406 41.03125 155.546875 C 40.898438 155.578125 40.773438 155.632812 40.664062 155.714844 C 40.554688 155.792969 40.460938 155.894531 40.390625 156.011719 C 40.320312 156.125 40.273438 156.253906 40.253906 156.386719 C 40.230469 156.523438 40.238281 156.65625 40.273438 156.789062 C 40.304688 156.921875 40.363281 157.042969 40.445312 157.152344 C 40.53125 157.261719 40.628906 157.351562 40.75 157.421875 C 40.867188 157.488281 40.996094 157.53125 41.128906 157.550781 C 41.265625 157.566406 41.398438 157.558594 41.53125 157.519531 C 42.09375 157.378906 42.660156 157.269531 43.234375 157.191406 C 43.808594 157.113281 44.386719 157.066406 44.964844 157.054688 C 45.542969 157.042969 46.121094 157.0625 46.699219 157.117188 C 47.277344 157.171875 47.847656 157.257812 48.414062 157.375 C 48.984375 157.496094 49.542969 157.644531 50.089844 157.828125 C 50.640625 158.007812 51.179688 158.222656 51.707031 158.464844 C 52.230469 158.707031 52.742188 158.980469 53.238281 159.28125 C 53.730469 159.582031 54.207031 159.910156 54.664062 160.265625 C 55.121094 160.621094 55.558594 161.003906 55.972656 161.40625 C 56.386719 161.8125 56.777344 162.242188 57.144531 162.691406 C 57.507812 163.140625 57.847656 163.609375 58.160156 164.097656 C 58.472656 164.582031 58.757812 165.089844 59.011719 165.609375 C 59.265625 166.128906 59.492188 166.660156 59.683594 167.207031 C 59.878906 167.753906 60.042969 168.308594 60.175781 168.871094 C 60.304688 169.4375 60.402344 170.007812 60.46875 170.582031 C 60.535156 171.15625 60.570312 171.734375 60.570312 172.316406 C 60.570312 172.449219 60.597656 172.578125 60.648438 172.703125 C 60.699219 172.828125 60.773438 172.9375 60.871094 173.035156 C 60.964844 173.128906 61.074219 173.203125 61.199219 173.253906 C 61.324219 173.304688 61.453125 173.332031 61.589844 173.332031 C 61.722656 173.332031 61.855469 173.304688 61.980469 173.253906 C 62.101562 173.203125 62.214844 173.128906 62.308594 173.035156 C 62.40625 172.9375 62.476562 172.828125 62.53125 172.703125 C 62.582031 172.578125 62.605469 172.449219 62.605469 172.316406 C 62.605469 171.75 62.578125 171.183594 62.523438 170.621094 C 62.464844 170.054688 62.382812 169.496094 62.269531 168.941406 C 62.160156 168.386719 62.023438 167.835938 61.859375 167.292969 C 61.691406 166.753906 61.5 166.21875 61.285156 165.695312 C 61.066406 165.171875 60.824219 164.664062 60.558594 164.164062 C 60.289062 163.664062 60 163.179688 59.683594 162.707031 C 59.371094 162.238281 59.03125 161.78125 58.671875 161.34375 C 58.3125 160.90625 57.933594 160.488281 57.535156 160.085938 C 57.132812 159.6875 56.714844 159.304688 56.277344 158.945312 C 55.839844 158.585938 55.382812 158.25 54.914062 157.933594 C 54.441406 157.621094 53.957031 157.328125 53.457031 157.0625 C 52.957031 156.792969 52.445312 156.550781 51.921875 156.335938 C 51.398438 156.117188 50.867188 155.925781 50.324219 155.761719 C 49.785156 155.597656 49.234375 155.460938 48.679688 155.347656 C 48.125 155.238281 47.566406 155.15625 47 155.097656 C 46.4375 155.042969 45.871094 155.015625 45.304688 155.011719 Z M 45.304688 155.011719 " fill-opacity="1" fill-rule="nonzero"/></g><path fill="#0048aa" d="M 30.039062 172.332031 C 30.054688 170.316406 30.445312 168.382812 31.214844 166.519531 C 31.980469 164.660156 33.070312 163.011719 34.476562 161.570312 C 35.421875 160.609375 36.480469 159.789062 37.640625 159.109375 C 37.757812 159.039062 37.859375 158.953125 37.9375 158.84375 C 38.019531 158.738281 38.078125 158.617188 38.113281 158.488281 C 38.144531 158.355469 38.152344 158.222656 38.136719 158.089844 C 38.117188 157.957031 38.074219 157.832031 38.003906 157.714844 C 37.9375 157.597656 37.847656 157.5 37.742188 157.417969 C 37.632812 157.335938 37.515625 157.277344 37.382812 157.246094 C 37.253906 157.210938 37.121094 157.203125 36.988281 157.222656 C 36.855469 157.242188 36.730469 157.285156 36.613281 157.351562 C 35.308594 158.117188 34.125 159.035156 33.058594 160.109375 C 31.996094 161.183594 31.085938 162.375 30.332031 163.6875 C 29.578125 164.996094 29 166.382812 28.609375 167.839844 C 28.214844 169.300781 28.011719 170.785156 28.003906 172.296875 C 28.003906 172.433594 28.027344 172.5625 28.074219 172.691406 C 28.125 172.816406 28.199219 172.925781 28.292969 173.023438 C 28.386719 173.121094 28.496094 173.195312 28.621094 173.25 C 28.746094 173.304688 28.875 173.332031 29.007812 173.332031 L 29.023438 173.332031 C 29.300781 173.332031 29.539062 173.234375 29.734375 173.039062 C 29.933594 172.84375 30.035156 172.609375 30.039062 172.332031 Z M 30.039062 172.332031 " fill-opacity="1" fill-rule="nonzero"/><path fill="#0048aa" d="M 34.109375 172.566406 C 34.09375 171.046875 34.367188 169.582031 34.929688 168.171875 C 35.492188 166.757812 36.304688 165.511719 37.367188 164.421875 C 38.414062 163.359375 39.625 162.542969 41.003906 161.96875 C 42.378906 161.394531 43.8125 161.113281 45.304688 161.121094 C 46.925781 161.121094 48.46875 161.457031 49.941406 162.128906 C 51.414062 162.800781 52.683594 163.746094 53.746094 164.964844 C 53.832031 165.074219 53.9375 165.160156 54.058594 165.222656 C 54.179688 165.289062 54.308594 165.328125 54.445312 165.339844 C 54.585938 165.351562 54.71875 165.335938 54.851562 165.292969 C 54.980469 165.25 55.097656 165.183594 55.203125 165.09375 C 55.308594 165.003906 55.390625 164.894531 55.449219 164.769531 C 55.511719 164.648438 55.542969 164.515625 55.550781 164.378906 C 55.558594 164.242188 55.539062 164.105469 55.492188 163.976562 C 55.445312 163.847656 55.375 163.730469 55.28125 163.632812 C 54.023438 162.1875 52.527344 161.070312 50.785156 160.277344 C 49.046875 159.484375 47.21875 159.085938 45.304688 159.085938 C 43.542969 159.078125 41.847656 159.414062 40.222656 160.097656 C 38.59375 160.777344 37.164062 161.746094 35.929688 163.003906 C 34.671875 164.285156 33.710938 165.761719 33.042969 167.425781 C 32.375 169.09375 32.054688 170.824219 32.074219 172.621094 C 31.984375 175.203125 31.351562 177.644531 30.171875 179.949219 L 29.601562 180.964844 C 29.527344 181.082031 29.480469 181.210938 29.460938 181.347656 C 29.441406 181.484375 29.449219 181.617188 29.484375 181.753906 C 29.519531 181.886719 29.578125 182.007812 29.664062 182.117188 C 29.746094 182.226562 29.847656 182.316406 29.96875 182.382812 C 30.089844 182.449219 30.21875 182.492188 30.355469 182.507812 C 30.492188 182.523438 30.628906 182.511719 30.761719 182.46875 C 30.894531 182.429688 31.011719 182.367188 31.117188 182.277344 C 31.226562 182.191406 31.308594 182.085938 31.371094 181.960938 L 31.972656 180.890625 C 33.320312 178.28125 34.035156 175.503906 34.109375 172.566406 Z M 34.109375 172.566406 " fill-opacity="1" fill-rule="nonzero"/><path fill="#0048aa" d="M 59.277344 180.292969 C 58.789062 177.835938 58.542969 175.351562 58.542969 172.847656 L 58.535156 172.316406 C 58.539062 170.804688 58.289062 169.335938 57.785156 167.910156 C 57.6875 167.652344 57.511719 167.464844 57.261719 167.347656 C 57.011719 167.234375 56.757812 167.21875 56.496094 167.3125 C 56.234375 167.402344 56.042969 167.574219 55.921875 167.820312 C 55.796875 168.070312 55.78125 168.324219 55.867188 168.585938 C 56.292969 169.800781 56.503906 171.054688 56.503906 172.339844 L 56.515625 172.886719 C 56.519531 175.554688 56.785156 178.195312 57.320312 180.808594 L 58.484375 184.644531 C 58.546875 184.859375 58.671875 185.03125 58.851562 185.164062 C 59.03125 185.296875 59.234375 185.363281 59.457031 185.363281 C 59.621094 185.363281 59.773438 185.328125 59.917969 185.253906 C 60.0625 185.183594 60.179688 185.082031 60.277344 184.953125 C 60.375 184.824219 60.433594 184.679688 60.460938 184.519531 C 60.488281 184.359375 60.480469 184.203125 60.433594 184.050781 Z M 59.277344 180.292969 " fill-opacity="1" fill-rule="nonzero"/><path fill="#0048aa" d="M 56.511719 185.71875 C 55.230469 181.34375 54.546875 176.875 54.464844 172.316406 C 54.460938 171.714844 54.394531 171.117188 54.273438 170.53125 C 54.148438 169.941406 53.96875 169.371094 53.734375 168.816406 C 53.5 168.261719 53.210938 167.738281 52.871094 167.242188 C 52.535156 166.742188 52.148438 166.285156 51.71875 165.863281 C 51.289062 165.441406 50.824219 165.066406 50.320312 164.738281 C 49.816406 164.410156 49.285156 164.132812 48.730469 163.90625 C 48.171875 163.683594 47.597656 163.515625 47.003906 163.402344 C 46.414062 163.289062 45.820312 163.238281 45.21875 163.242188 C 44.617188 163.25 44.019531 163.3125 43.433594 163.4375 C 42.84375 163.558594 42.273438 163.738281 41.71875 163.976562 C 41.164062 164.210938 40.640625 164.496094 40.144531 164.835938 C 39.644531 165.175781 39.1875 165.558594 38.765625 165.988281 C 38.34375 166.417969 37.96875 166.882812 37.640625 167.386719 C 37.3125 167.890625 37.035156 168.421875 36.808594 168.980469 C 36.585938 169.539062 36.417969 170.113281 36.304688 170.703125 C 36.191406 171.292969 36.140625 171.890625 36.144531 172.492188 C 36.050781 174.820312 35.617188 177.085938 34.855469 179.289062 C 34.089844 181.488281 33.023438 183.535156 31.652344 185.421875 C 31.578125 185.53125 31.523438 185.652344 31.496094 185.785156 C 31.46875 185.917969 31.464844 186.050781 31.488281 186.183594 C 31.511719 186.316406 31.5625 186.4375 31.632812 186.550781 C 31.707031 186.664062 31.800781 186.761719 31.910156 186.835938 C 32.019531 186.914062 32.144531 186.96875 32.273438 186.996094 C 32.40625 187.023438 32.539062 187.027344 32.671875 187.003906 C 32.804688 186.980469 32.925781 186.929688 33.042969 186.855469 C 33.15625 186.785156 33.25 186.691406 33.328125 186.582031 C 34.824219 184.523438 35.984375 182.289062 36.8125 179.882812 C 37.640625 177.476562 38.097656 175 38.179688 172.457031 C 38.175781 171.988281 38.21875 171.523438 38.304688 171.066406 C 38.394531 170.605469 38.523438 170.160156 38.699219 169.726562 C 38.875 169.292969 39.089844 168.878906 39.347656 168.488281 C 39.605469 168.097656 39.898438 167.734375 40.226562 167.398438 C 40.554688 167.066406 40.910156 166.769531 41.296875 166.503906 C 41.683594 166.242188 42.09375 166.019531 42.523438 165.835938 C 42.953125 165.652344 43.398438 165.515625 43.855469 165.417969 C 44.316406 165.324219 44.777344 165.273438 45.246094 165.269531 C 45.714844 165.265625 46.179688 165.308594 46.636719 165.394531 C 47.097656 165.484375 47.542969 165.613281 47.976562 165.789062 C 48.410156 165.964844 48.824219 166.183594 49.214844 166.4375 C 49.605469 166.695312 49.96875 166.988281 50.300781 167.316406 C 50.636719 167.644531 50.933594 168.003906 51.199219 168.390625 C 51.460938 168.777344 51.683594 169.183594 51.867188 169.617188 C 52.046875 170.046875 52.1875 170.492188 52.28125 170.949219 C 52.375 171.40625 52.425781 171.871094 52.429688 172.339844 C 52.515625 177.097656 53.230469 181.761719 54.574219 186.328125 L 55.515625 189.347656 C 55.582031 189.5625 55.703125 189.734375 55.882812 189.867188 C 56.0625 190 56.265625 190.066406 56.488281 190.066406 C 56.589844 190.066406 56.691406 190.050781 56.789062 190.019531 C 56.917969 189.980469 57.035156 189.917969 57.140625 189.832031 C 57.242188 189.746094 57.324219 189.640625 57.386719 189.523438 C 57.453125 189.402344 57.488281 189.277344 57.5 189.140625 C 57.511719 189.007812 57.5 188.875 57.460938 188.746094 Z M 56.511719 185.71875 " fill-opacity="1" fill-rule="nonzero"/><g clip-path="url(#c03dc153e8)"><path fill="#0048aa" d="M 50.394531 172.316406 C 50.394531 171.980469 50.359375 171.648438 50.292969 171.324219 C 50.226562 170.996094 50.128906 170.675781 50 170.367188 C 49.871094 170.0625 49.710938 169.769531 49.523438 169.492188 C 49.339844 169.214844 49.125 168.957031 48.890625 168.722656 C 48.652344 168.488281 48.394531 168.277344 48.113281 168.09375 C 47.835938 167.910156 47.542969 167.753906 47.234375 167.625 C 46.925781 167.5 46.605469 167.40625 46.277344 167.339844 C 45.949219 167.277344 45.617188 167.246094 45.285156 167.246094 C 44.949219 167.25 44.621094 167.28125 44.292969 167.347656 C 43.964844 167.414062 43.648438 167.515625 43.339844 167.644531 C 43.03125 167.773438 42.738281 167.929688 42.460938 168.117188 C 42.183594 168.304688 41.925781 168.515625 41.691406 168.753906 C 41.457031 168.988281 41.246094 169.25 41.0625 169.527344 C 40.878906 169.804688 40.722656 170.097656 40.597656 170.410156 C 40.46875 170.71875 40.375 171.035156 40.3125 171.363281 C 40.246094 171.691406 40.214844 172.023438 40.21875 172.355469 C 40.105469 175.410156 39.519531 178.367188 38.453125 181.230469 C 37.386719 184.09375 35.898438 186.714844 33.988281 189.097656 C 33.824219 189.320312 33.757812 189.570312 33.796875 189.84375 C 33.835938 190.121094 33.964844 190.339844 34.1875 190.511719 C 34.40625 190.679688 34.652344 190.746094 34.929688 190.714844 C 35.207031 190.679688 35.429688 190.554688 35.601562 190.335938 C 37.667969 187.777344 39.265625 184.957031 40.40625 181.871094 C 41.542969 178.785156 42.160156 175.601562 42.253906 172.316406 C 42.253906 171.910156 42.332031 171.519531 42.488281 171.148438 C 42.644531 170.773438 42.867188 170.445312 43.15625 170.160156 C 43.441406 169.871094 43.773438 169.652344 44.148438 169.5 C 44.523438 169.347656 44.914062 169.269531 45.316406 169.273438 C 45.722656 169.273438 46.113281 169.351562 46.484375 169.507812 C 46.859375 169.664062 47.1875 169.886719 47.472656 170.175781 C 47.757812 170.464844 47.976562 170.792969 48.132812 171.167969 C 48.285156 171.542969 48.359375 171.933594 48.359375 172.339844 C 48.253906 176.296875 47.523438 180.136719 46.167969 183.859375 C 44.816406 187.582031 42.90625 190.992188 40.445312 194.09375 C 40.28125 194.316406 40.214844 194.566406 40.253906 194.839844 C 40.292969 195.117188 40.421875 195.339844 40.640625 195.507812 C 40.863281 195.675781 41.109375 195.746094 41.386719 195.710938 C 41.660156 195.675781 41.886719 195.550781 42.058594 195.332031 C 44.660156 192.050781 46.675781 188.441406 48.101562 184.503906 C 49.527344 180.566406 50.292969 176.5 50.394531 172.316406 Z M 50.394531 172.316406 " fill-opacity="1" fill-rule="nonzero"/></g><path fill="#0048aa" d="M 44.808594 177.386719 C 44.863281 177.394531 44.917969 177.398438 44.972656 177.398438 C 45.222656 177.398438 45.441406 177.316406 45.632812 177.15625 C 45.820312 176.992188 45.9375 176.789062 45.976562 176.542969 C 46.222656 175.128906 46.335938 173.703125 46.316406 172.269531 C 46.3125 172.132812 46.285156 172.003906 46.226562 171.878906 C 46.171875 171.757812 46.09375 171.648438 45.992188 171.558594 C 45.890625 171.464844 45.777344 171.398438 45.652344 171.351562 C 45.523438 171.308594 45.390625 171.289062 45.257812 171.296875 C 45.121094 171.304688 44.992188 171.335938 44.871094 171.390625 C 44.75 171.449219 44.644531 171.527344 44.550781 171.625 C 44.460938 171.726562 44.390625 171.839844 44.347656 171.964844 C 44.300781 172.09375 44.28125 172.222656 44.285156 172.355469 C 44.296875 173.65625 44.1875 174.945312 43.964844 176.226562 C 43.945312 176.359375 43.949219 176.488281 43.980469 176.621094 C 44.011719 176.75 44.066406 176.871094 44.148438 176.980469 C 44.226562 177.089844 44.324219 177.179688 44.4375 177.25 C 44.550781 177.320312 44.675781 177.367188 44.808594 177.386719 Z M 44.808594 177.386719 " fill-opacity="1" fill-rule="nonzero"/><path fill="#0048aa" d="M 44.320312 179.507812 C 44.191406 179.46875 44.058594 179.457031 43.925781 179.472656 C 43.789062 179.484375 43.664062 179.527344 43.546875 179.589844 C 43.425781 179.65625 43.324219 179.738281 43.242188 179.84375 C 43.15625 179.949219 43.09375 180.066406 43.054688 180.195312 C 41.742188 184.589844 39.648438 188.570312 36.769531 192.140625 C 36.683594 192.246094 36.625 192.363281 36.585938 192.492188 C 36.546875 192.621094 36.539062 192.753906 36.550781 192.886719 C 36.566406 193.023438 36.605469 193.148438 36.671875 193.265625 C 36.738281 193.386719 36.824219 193.488281 36.929688 193.570312 C 37.035156 193.65625 37.152344 193.714844 37.28125 193.753906 C 37.410156 193.792969 37.542969 193.800781 37.675781 193.789062 C 37.808594 193.773438 37.9375 193.734375 38.054688 193.667969 C 38.171875 193.601562 38.273438 193.515625 38.359375 193.414062 C 41.402344 189.632812 43.621094 185.421875 45.007812 180.773438 C 45.046875 180.640625 45.058594 180.511719 45.042969 180.375 C 45.03125 180.242188 44.992188 180.117188 44.925781 179.996094 C 44.863281 179.878906 44.777344 179.777344 44.671875 179.691406 C 44.566406 179.609375 44.449219 179.546875 44.320312 179.507812 Z M 44.320312 179.507812 " fill-opacity="1" fill-rule="nonzero"/><g clip-path="url(#ee175e3c82)"><path fill="#0048aa" d="M 52.957031 187.804688 C 52.46875 186.347656 52.015625 184.796875 52.011719 184.796875 C 51.953125 184.589844 51.835938 184.421875 51.667969 184.289062 C 51.5 184.15625 51.308594 184.082031 51.097656 184.070312 C 50.882812 184.054688 50.683594 184.105469 50.5 184.21875 C 50.320312 184.332031 50.1875 184.488281 50.101562 184.683594 C 48.691406 187.953125 47.0625 191.113281 45.214844 194.15625 C 45.144531 194.269531 45.097656 194.394531 45.074219 194.527344 C 45.050781 194.660156 45.050781 194.792969 45.082031 194.925781 C 45.113281 195.054688 45.164062 195.175781 45.242188 195.289062 C 45.320312 195.398438 45.414062 195.488281 45.527344 195.5625 C 45.644531 195.632812 45.765625 195.683594 45.898438 195.707031 C 46.03125 195.730469 46.164062 195.726562 46.296875 195.695312 C 46.425781 195.667969 46.550781 195.613281 46.660156 195.535156 C 46.769531 195.460938 46.863281 195.363281 46.933594 195.25 C 48.390625 192.894531 49.703125 190.457031 50.867188 187.945312 C 50.921875 188.109375 50.976562 188.269531 51.03125 188.429688 L 52.253906 192.3125 C 52.292969 192.441406 52.355469 192.558594 52.441406 192.664062 C 52.53125 192.765625 52.632812 192.847656 52.753906 192.910156 C 52.871094 192.972656 53 193.011719 53.136719 193.023438 C 53.269531 193.035156 53.402344 193.023438 53.53125 192.980469 C 53.660156 192.941406 53.777344 192.875 53.878906 192.789062 C 53.984375 192.703125 54.066406 192.601562 54.128906 192.480469 C 54.191406 192.359375 54.226562 192.234375 54.238281 192.097656 C 54.25 191.964844 54.238281 191.832031 54.195312 191.703125 Z M 52.957031 187.804688 " fill-opacity="1" fill-rule="nonzero"/></g><g clip-path="url(#514aff4aa5)"><path fill="#000000" d="M 55.484375 150.941406 C 55.335938 150.941406 55.195312 150.910156 55.0625 150.851562 C 51.949219 149.496094 48.699219 148.847656 45.304688 148.90625 C 41.914062 148.84375 38.664062 149.488281 35.554688 150.847656 C 35.429688 150.910156 35.300781 150.945312 35.164062 150.953125 C 35.027344 150.960938 34.890625 150.941406 34.761719 150.894531 C 34.632812 150.851562 34.519531 150.78125 34.417969 150.6875 C 34.316406 150.597656 34.234375 150.488281 34.175781 150.363281 C 34.121094 150.238281 34.089844 150.105469 34.085938 149.96875 C 34.082031 149.832031 34.101562 149.699219 34.152344 149.570312 C 34.203125 149.441406 34.273438 149.328125 34.371094 149.230469 C 34.464844 149.128906 34.578125 149.054688 34.703125 149 C 38.082031 147.515625 41.617188 146.804688 45.304688 146.871094 C 48.992188 146.8125 52.527344 147.519531 55.902344 149 C 56.121094 149.097656 56.285156 149.253906 56.390625 149.46875 C 56.5 149.683594 56.527344 149.90625 56.476562 150.140625 C 56.425781 150.375 56.308594 150.566406 56.121094 150.714844 C 55.933594 150.867188 55.722656 150.941406 55.484375 150.941406 Z M 55.484375 150.941406 " fill-opacity="1" fill-rule="nonzero"/></g><path fill="#000000" d="M 59.554688 159.085938 C 59.269531 159.085938 59.027344 158.984375 58.828125 158.78125 C 58.394531 158.324219 57.9375 157.890625 57.460938 157.480469 C 56.980469 157.066406 56.484375 156.683594 55.964844 156.320312 C 55.445312 155.960938 54.914062 155.628906 54.359375 155.320312 C 53.808594 155.015625 53.242188 154.738281 52.664062 154.488281 C 52.085938 154.242188 51.492188 154.023438 50.890625 153.832031 C 50.289062 153.644531 49.679688 153.488281 49.0625 153.359375 C 48.445312 153.234375 47.820312 153.136719 47.191406 153.074219 C 46.566406 153.007812 45.9375 152.976562 45.304688 152.976562 C 44.675781 152.976562 44.046875 153.007812 43.417969 153.074219 C 42.789062 153.136719 42.167969 153.234375 41.550781 153.359375 C 40.933594 153.488281 40.320312 153.644531 39.71875 153.832031 C 39.117188 154.023438 38.527344 154.242188 37.949219 154.488281 C 37.367188 154.738281 36.800781 155.015625 36.25 155.320312 C 35.699219 155.628906 35.164062 155.960938 34.648438 156.320312 C 34.128906 156.683594 33.628906 157.066406 33.152344 157.480469 C 32.671875 157.890625 32.214844 158.324219 31.78125 158.78125 C 31.582031 158.957031 31.347656 159.042969 31.078125 159.039062 C 30.8125 159.03125 30.582031 158.933594 30.390625 158.746094 C 30.203125 158.558594 30.101562 158.328125 30.089844 158.0625 C 30.078125 157.792969 30.160156 157.558594 30.335938 157.355469 C 30.816406 156.851562 31.324219 156.371094 31.851562 155.917969 C 32.382812 155.464844 32.933594 155.039062 33.507812 154.640625 C 34.082031 154.242188 34.675781 153.875 35.285156 153.535156 C 35.894531 153.195312 36.523438 152.890625 37.164062 152.617188 C 37.804688 152.339844 38.460938 152.097656 39.125 151.890625 C 39.792969 151.683594 40.46875 151.507812 41.152344 151.367188 C 41.835938 151.226562 42.523438 151.121094 43.21875 151.050781 C 43.914062 150.980469 44.609375 150.945312 45.308594 150.945312 C 46.003906 150.945312 46.703125 150.980469 47.398438 151.050781 C 48.089844 151.121094 48.78125 151.226562 49.464844 151.367188 C 50.148438 151.507812 50.824219 151.683594 51.488281 151.890625 C 52.15625 152.097656 52.808594 152.339844 53.453125 152.617188 C 54.09375 152.890625 54.71875 153.195312 55.328125 153.535156 C 55.941406 153.875 56.53125 154.242188 57.105469 154.640625 C 57.679688 155.039062 58.230469 155.464844 58.761719 155.917969 C 59.292969 156.371094 59.796875 156.851562 60.28125 157.355469 C 60.421875 157.503906 60.511719 157.675781 60.550781 157.875 C 60.589844 158.078125 60.570312 158.273438 60.488281 158.460938 C 60.410156 158.648438 60.285156 158.800781 60.117188 158.914062 C 59.945312 159.027344 59.757812 159.082031 59.554688 159.085938 Z M 59.554688 159.085938 " fill-opacity="1" fill-rule="nonzero"/><g clip-path="url(#70f2f00d05)"><path fill="#000000" d="M 61.589844 173.332031 C 61.453125 173.332031 61.324219 173.304688 61.199219 173.253906 C 61.074219 173.203125 60.964844 173.128906 60.871094 173.035156 C 60.773438 172.9375 60.699219 172.828125 60.648438 172.703125 C 60.597656 172.578125 60.570312 172.449219 60.570312 172.316406 C 60.570312 171.734375 60.539062 171.15625 60.472656 170.582031 C 60.40625 170.003906 60.304688 169.433594 60.175781 168.871094 C 60.042969 168.304688 59.878906 167.75 59.6875 167.203125 C 59.492188 166.65625 59.265625 166.125 59.011719 165.605469 C 58.757812 165.082031 58.472656 164.578125 58.160156 164.089844 C 57.847656 163.601562 57.507812 163.132812 57.140625 162.683594 C 56.777344 162.234375 56.386719 161.804688 55.972656 161.402344 C 55.554688 160.996094 55.121094 160.617188 54.664062 160.261719 C 54.203125 159.90625 53.726562 159.574219 53.230469 159.273438 C 52.738281 158.972656 52.226562 158.699219 51.699219 158.457031 C 51.171875 158.214844 50.636719 158 50.085938 157.820312 C 49.535156 157.636719 48.976562 157.488281 48.40625 157.371094 C 47.839844 157.25 47.269531 157.164062 46.691406 157.113281 C 46.113281 157.058594 45.535156 157.039062 44.957031 157.050781 C 44.375 157.0625 43.796875 157.109375 43.222656 157.1875 C 42.648438 157.265625 42.082031 157.375 41.519531 157.519531 C 41.386719 157.554688 41.253906 157.566406 41.117188 157.546875 C 40.980469 157.53125 40.855469 157.488281 40.738281 157.417969 C 40.617188 157.351562 40.515625 157.261719 40.433594 157.152344 C 40.351562 157.042969 40.292969 156.921875 40.261719 156.789062 C 40.226562 156.65625 40.21875 156.523438 40.242188 156.386719 C 40.261719 156.25 40.308594 156.125 40.378906 156.007812 C 40.449219 155.890625 40.539062 155.792969 40.652344 155.710938 C 40.761719 155.632812 40.886719 155.578125 41.019531 155.546875 C 41.65625 155.382812 42.300781 155.257812 42.949219 155.171875 C 43.601562 155.082031 44.253906 155.03125 44.914062 155.015625 C 45.570312 155 46.226562 155.023438 46.878906 155.085938 C 47.535156 155.144531 48.183594 155.242188 48.824219 155.375 C 49.46875 155.507812 50.101562 155.679688 50.726562 155.886719 C 51.351562 156.09375 51.960938 156.332031 52.554688 156.609375 C 53.152344 156.882812 53.730469 157.191406 54.292969 157.535156 C 54.855469 157.875 55.394531 158.25 55.914062 158.652344 C 56.433594 159.054688 56.925781 159.484375 57.394531 159.945312 C 57.867188 160.40625 58.308594 160.890625 58.722656 161.398438 C 59.136719 161.910156 59.523438 162.441406 59.875 162.992188 C 60.230469 163.546875 60.550781 164.117188 60.839844 164.707031 C 61.128906 165.296875 61.386719 165.902344 61.605469 166.523438 C 61.824219 167.140625 62.011719 167.769531 62.160156 168.410156 C 62.308594 169.050781 62.417969 169.695312 62.492188 170.351562 C 62.570312 171.003906 62.605469 171.65625 62.605469 172.316406 C 62.605469 172.449219 62.582031 172.578125 62.53125 172.703125 C 62.476562 172.828125 62.40625 172.9375 62.308594 173.035156 C 62.214844 173.128906 62.101562 173.203125 61.980469 173.253906 C 61.855469 173.304688 61.722656 173.332031 61.589844 173.332031 Z M 61.589844 173.332031 " fill-opacity="1" fill-rule="nonzero"/></g><path fill="#000000" d="M 29.023438 173.332031 L 29.007812 173.332031 C 28.875 173.332031 28.746094 173.300781 28.621094 173.25 C 28.496094 173.195312 28.390625 173.121094 28.292969 173.023438 C 28.199219 172.925781 28.128906 172.816406 28.078125 172.6875 C 28.03125 172.5625 28.007812 172.433594 28.007812 172.296875 C 28.015625 170.785156 28.214844 169.300781 28.609375 167.839844 C 29.003906 166.382812 29.578125 164.996094 30.332031 163.6875 C 31.089844 162.375 31.996094 161.183594 33.0625 160.109375 C 34.125 159.035156 35.308594 158.117188 36.613281 157.351562 C 36.730469 157.28125 36.855469 157.238281 36.988281 157.21875 C 37.125 157.203125 37.253906 157.210938 37.386719 157.242188 C 37.515625 157.277344 37.636719 157.335938 37.742188 157.417969 C 37.851562 157.496094 37.9375 157.597656 38.007812 157.714844 C 38.074219 157.828125 38.117188 157.953125 38.136719 158.089844 C 38.15625 158.222656 38.148438 158.355469 38.113281 158.484375 C 38.078125 158.617188 38.023438 158.734375 37.941406 158.84375 C 37.859375 158.949219 37.761719 159.039062 37.644531 159.105469 C 36.480469 159.789062 35.425781 160.609375 34.480469 161.570312 C 33.070312 163.007812 31.980469 164.65625 31.214844 166.519531 C 30.445312 168.378906 30.054688 170.316406 30.039062 172.332031 C 30.035156 172.609375 29.933594 172.84375 29.734375 173.039062 C 29.539062 173.234375 29.300781 173.332031 29.023438 173.332031 Z M 29.023438 173.332031 " fill-opacity="1" fill-rule="nonzero"/><path fill="#000000" d="M 30.488281 182.492188 C 30.398438 182.492188 30.3125 182.480469 30.226562 182.457031 C 30.140625 182.433594 30.058594 182.402344 29.980469 182.355469 C 29.902344 182.3125 29.832031 182.257812 29.769531 182.195312 C 29.707031 182.132812 29.652344 182.066406 29.609375 181.988281 C 29.5625 181.910156 29.53125 181.832031 29.507812 181.746094 C 29.484375 181.660156 29.46875 181.570312 29.46875 181.484375 C 29.46875 181.394531 29.480469 181.308594 29.5 181.222656 C 29.523438 181.132812 29.554688 181.054688 29.601562 180.976562 L 30.171875 179.957031 C 31.351562 177.65625 31.984375 175.214844 32.074219 172.628906 C 32.050781 170.832031 32.375 169.101562 33.042969 167.433594 C 33.710938 165.761719 34.671875 164.285156 35.929688 163.003906 C 37.164062 161.746094 38.59375 160.777344 40.222656 160.097656 C 41.847656 159.414062 43.542969 159.078125 45.304688 159.085938 C 47.21875 159.085938 49.042969 159.480469 50.785156 160.273438 C 52.527344 161.070312 54.023438 162.1875 55.28125 163.628906 C 55.375 163.730469 55.445312 163.84375 55.492188 163.976562 C 55.539062 164.105469 55.558594 164.238281 55.550781 164.375 C 55.542969 164.515625 55.511719 164.644531 55.449219 164.769531 C 55.390625 164.894531 55.308594 165 55.203125 165.089844 C 55.097656 165.179688 54.980469 165.246094 54.851562 165.289062 C 54.71875 165.332031 54.585938 165.347656 54.445312 165.335938 C 54.308594 165.324219 54.179688 165.285156 54.058594 165.222656 C 53.9375 165.15625 53.832031 165.070312 53.746094 164.964844 C 52.683594 163.742188 51.414062 162.796875 49.941406 162.128906 C 48.46875 161.457031 46.925781 161.121094 45.304688 161.121094 C 43.8125 161.113281 42.378906 161.398438 41 161.972656 C 39.625 162.546875 38.414062 163.367188 37.367188 164.433594 C 36.304688 165.519531 35.492188 166.769531 34.929688 168.179688 C 34.367188 169.589844 34.09375 171.054688 34.109375 172.574219 C 34.035156 175.519531 33.324219 178.300781 31.972656 180.921875 L 31.371094 181.992188 C 31.175781 182.328125 30.878906 182.496094 30.488281 182.492188 Z M 30.488281 182.492188 " fill-opacity="1" fill-rule="nonzero"/><path fill="#000000" d="M 59.449219 185.363281 C 59.226562 185.363281 59.023438 185.296875 58.84375 185.164062 C 58.664062 185.03125 58.539062 184.855469 58.476562 184.640625 L 57.316406 180.804688 C 56.78125 178.195312 56.515625 175.554688 56.511719 172.886719 L 56.5 172.339844 C 56.503906 171.050781 56.289062 169.800781 55.863281 168.585938 C 55.777344 168.324219 55.796875 168.066406 55.917969 167.820312 C 56.039062 167.570312 56.230469 167.402344 56.492188 167.308594 C 56.753906 167.21875 57.007812 167.230469 57.261719 167.347656 C 57.511719 167.464844 57.683594 167.652344 57.78125 167.910156 C 58.285156 169.335938 58.539062 170.804688 58.535156 172.316406 L 58.546875 172.847656 C 58.546875 175.351562 58.792969 177.835938 59.28125 180.292969 L 60.429688 184.050781 C 60.476562 184.203125 60.484375 184.359375 60.457031 184.519531 C 60.429688 184.679688 60.371094 184.824219 60.273438 184.953125 C 60.175781 185.082031 60.058594 185.183594 59.914062 185.253906 C 59.769531 185.328125 59.617188 185.363281 59.453125 185.363281 Z M 59.449219 185.363281 " fill-opacity="1" fill-rule="nonzero"/><path fill="#000000" d="M 56.480469 190.066406 C 56.257812 190.066406 56.058594 190.003906 55.878906 189.871094 C 55.699219 189.738281 55.574219 189.566406 55.507812 189.351562 L 54.570312 186.332031 C 53.226562 181.761719 52.515625 177.101562 52.429688 172.339844 C 52.425781 171.875 52.375 171.410156 52.28125 170.953125 C 52.1875 170.492188 52.046875 170.050781 51.867188 169.617188 C 51.683594 169.1875 51.460938 168.777344 51.199219 168.390625 C 50.933594 168.003906 50.636719 167.648438 50.300781 167.320312 C 49.96875 166.992188 49.605469 166.699219 49.214844 166.441406 C 48.824219 166.183594 48.410156 165.96875 47.976562 165.792969 C 47.542969 165.617188 47.097656 165.484375 46.636719 165.398438 C 46.179688 165.308594 45.714844 165.269531 45.246094 165.273438 C 44.777344 165.277344 44.316406 165.324219 43.855469 165.421875 C 43.398438 165.515625 42.953125 165.65625 42.523438 165.835938 C 42.09375 166.019531 41.683594 166.242188 41.296875 166.507812 C 40.910156 166.769531 40.554688 167.070312 40.226562 167.402344 C 39.898438 167.734375 39.605469 168.097656 39.347656 168.488281 C 39.089844 168.882812 38.875 169.292969 38.699219 169.726562 C 38.523438 170.160156 38.394531 170.609375 38.304688 171.066406 C 38.21875 171.527344 38.175781 171.992188 38.179688 172.460938 C 38.09375 175.003906 37.640625 177.476562 36.8125 179.882812 C 35.984375 182.289062 34.824219 184.523438 33.328125 186.582031 C 33.25 186.691406 33.15625 186.785156 33.042969 186.855469 C 32.925781 186.929688 32.804688 186.980469 32.671875 187.003906 C 32.539062 187.027344 32.40625 187.023438 32.273438 186.996094 C 32.144531 186.96875 32.019531 186.914062 31.910156 186.835938 C 31.800781 186.761719 31.707031 186.664062 31.632812 186.550781 C 31.5625 186.4375 31.511719 186.316406 31.488281 186.183594 C 31.464844 186.050781 31.46875 185.917969 31.496094 185.785156 C 31.523438 185.652344 31.578125 185.53125 31.652344 185.421875 C 33.023438 183.535156 34.089844 181.488281 34.855469 179.289062 C 35.617188 177.085938 36.050781 174.820312 36.144531 172.492188 C 36.140625 171.890625 36.191406 171.292969 36.304688 170.703125 C 36.417969 170.113281 36.585938 169.539062 36.808594 168.980469 C 37.035156 168.421875 37.3125 167.890625 37.640625 167.386719 C 37.96875 166.882812 38.34375 166.417969 38.765625 165.988281 C 39.1875 165.558594 39.644531 165.175781 40.144531 164.835938 C 40.640625 164.496094 41.164062 164.210938 41.71875 163.976562 C 42.273438 163.738281 42.84375 163.558594 43.433594 163.4375 C 44.019531 163.3125 44.617188 163.25 45.21875 163.242188 C 45.820312 163.238281 46.414062 163.289062 47.003906 163.402344 C 47.597656 163.515625 48.171875 163.683594 48.730469 163.90625 C 49.285156 164.132812 49.816406 164.410156 50.320312 164.738281 C 50.824219 165.066406 51.289062 165.441406 51.71875 165.863281 C 52.148438 166.285156 52.535156 166.742188 52.871094 167.242188 C 53.210938 167.738281 53.5 168.261719 53.734375 168.816406 C 53.96875 169.371094 54.148438 169.941406 54.273438 170.53125 C 54.394531 171.117188 54.460938 171.714844 54.464844 172.316406 C 54.546875 176.875 55.230469 181.34375 56.515625 185.71875 L 57.460938 188.746094 C 57.5 188.875 57.511719 189.007812 57.5 189.140625 C 57.488281 189.277344 57.453125 189.402344 57.386719 189.523438 C 57.324219 189.640625 57.242188 189.746094 57.136719 189.832031 C 57.035156 189.917969 56.917969 189.980469 56.789062 190.019531 C 56.691406 190.054688 56.585938 190.070312 56.480469 190.066406 Z M 56.480469 190.066406 " fill-opacity="1" fill-rule="nonzero"/><g clip-path="url(#c9f08122e2)"><path fill="#000000" d="M 41.253906 195.722656 C 40.832031 195.722656 40.53125 195.535156 40.34375 195.160156 C 40.15625 194.785156 40.1875 194.429688 40.4375 194.09375 C 42.902344 190.992188 44.8125 187.582031 46.167969 183.859375 C 47.523438 180.136719 48.253906 176.296875 48.359375 172.339844 C 48.359375 171.933594 48.285156 171.542969 48.132812 171.167969 C 47.976562 170.792969 47.757812 170.464844 47.472656 170.175781 C 47.1875 169.886719 46.859375 169.664062 46.484375 169.507812 C 46.113281 169.351562 45.722656 169.273438 45.316406 169.273438 C 44.914062 169.269531 44.523438 169.347656 44.148438 169.5 C 43.773438 169.652344 43.441406 169.871094 43.15625 170.160156 C 42.867188 170.445312 42.644531 170.773438 42.488281 171.148438 C 42.332031 171.519531 42.253906 171.910156 42.253906 172.316406 C 42.160156 175.601562 41.542969 178.785156 40.40625 181.871094 C 39.269531 184.953125 37.667969 187.777344 35.605469 190.335938 C 35.433594 190.554688 35.210938 190.679688 34.933594 190.714844 C 34.65625 190.746094 34.410156 190.679688 34.191406 190.511719 C 33.96875 190.339844 33.839844 190.121094 33.800781 189.84375 C 33.761719 189.570312 33.828125 189.320312 33.992188 189.097656 C 35.902344 186.714844 37.390625 184.09375 38.457031 181.230469 C 39.519531 178.367188 40.105469 175.410156 40.21875 172.355469 C 40.214844 172.023438 40.246094 171.691406 40.3125 171.363281 C 40.375 171.035156 40.46875 170.71875 40.597656 170.410156 C 40.722656 170.097656 40.878906 169.804688 41.0625 169.527344 C 41.246094 169.25 41.457031 168.988281 41.691406 168.753906 C 41.925781 168.515625 42.183594 168.304688 42.460938 168.117188 C 42.738281 167.929688 43.03125 167.773438 43.339844 167.644531 C 43.648438 167.515625 43.964844 167.414062 44.292969 167.347656 C 44.621094 167.28125 44.949219 167.25 45.285156 167.246094 C 45.617188 167.246094 45.949219 167.277344 46.277344 167.339844 C 46.605469 167.40625 46.925781 167.5 47.234375 167.625 C 47.542969 167.753906 47.835938 167.910156 48.113281 168.09375 C 48.394531 168.277344 48.652344 168.488281 48.890625 168.722656 C 49.125 168.957031 49.339844 169.214844 49.523438 169.492188 C 49.710938 169.769531 49.871094 170.0625 50 170.367188 C 50.128906 170.675781 50.226562 170.996094 50.292969 171.324219 C 50.359375 171.648438 50.394531 171.980469 50.394531 172.316406 C 50.289062 176.5 49.523438 180.558594 48.101562 184.492188 C 46.675781 188.429688 44.664062 192.035156 42.0625 195.316406 C 41.859375 195.585938 41.589844 195.722656 41.253906 195.722656 Z M 41.253906 195.722656 " fill-opacity="1" fill-rule="nonzero"/></g><path fill="#000000" d="M 44.972656 177.402344 C 44.917969 177.402344 44.863281 177.398438 44.808594 177.390625 C 44.675781 177.371094 44.550781 177.324219 44.4375 177.253906 C 44.320312 177.183594 44.222656 177.09375 44.144531 176.984375 C 44.066406 176.875 44.011719 176.753906 43.980469 176.621094 C 43.949219 176.492188 43.941406 176.359375 43.964844 176.226562 C 44.1875 174.945312 44.296875 173.65625 44.285156 172.355469 C 44.28125 172.222656 44.300781 172.09375 44.347656 171.964844 C 44.390625 171.839844 44.460938 171.726562 44.550781 171.625 C 44.644531 171.527344 44.75 171.449219 44.871094 171.390625 C 44.992188 171.335938 45.121094 171.304688 45.257812 171.296875 C 45.394531 171.285156 45.527344 171.300781 45.65625 171.34375 C 45.785156 171.386719 45.898438 171.457031 46 171.546875 C 46.101562 171.640625 46.179688 171.75 46.234375 171.875 C 46.289062 172 46.316406 172.128906 46.316406 172.265625 C 46.335938 173.703125 46.222656 175.125 45.976562 176.539062 C 45.9375 176.789062 45.824219 176.992188 45.632812 177.15625 C 45.441406 177.320312 45.222656 177.402344 44.972656 177.402344 Z M 44.972656 177.402344 " fill-opacity="1" fill-rule="nonzero"/><path fill="#000000" d="M 37.570312 193.792969 C 37.144531 193.796875 36.839844 193.601562 36.652344 193.21875 C 36.46875 192.835938 36.507812 192.476562 36.773438 192.140625 C 39.652344 188.574219 41.75 184.589844 43.0625 180.199219 C 43.144531 179.933594 43.308594 179.734375 43.554688 179.601562 C 43.800781 179.472656 44.054688 179.445312 44.320312 179.523438 C 44.589844 179.601562 44.789062 179.765625 44.925781 180.007812 C 45.058594 180.25 45.089844 180.507812 45.015625 180.773438 C 43.625 185.421875 41.410156 189.636719 38.363281 193.414062 C 38.160156 193.667969 37.894531 193.796875 37.570312 193.792969 Z M 37.570312 193.792969 " fill-opacity="1" fill-rule="nonzero"/><g clip-path="url(#98cbf498fe)"><path fill="#000000" d="M 46.066406 195.722656 C 45.664062 195.722656 45.367188 195.546875 45.171875 195.195312 C 44.980469 194.84375 44.992188 194.496094 45.207031 194.15625 C 47.054688 191.113281 48.683594 187.953125 50.09375 184.683594 C 50.171875 184.484375 50.304688 184.328125 50.488281 184.214844 C 50.671875 184.101562 50.871094 184.054688 51.085938 184.074219 C 51.300781 184.085938 51.492188 184.160156 51.660156 184.292969 C 51.828125 184.425781 51.945312 184.597656 52.003906 184.800781 C 52.003906 184.800781 52.460938 186.355469 52.949219 187.8125 L 54.171875 191.710938 C 54.210938 191.839844 54.226562 191.972656 54.214844 192.109375 C 54.203125 192.242188 54.164062 192.371094 54.101562 192.488281 C 54.039062 192.609375 53.957031 192.710938 53.855469 192.800781 C 53.75 192.886719 53.632812 192.949219 53.503906 192.988281 C 53.375 193.03125 53.246094 193.042969 53.109375 193.03125 C 52.976562 193.019531 52.847656 192.984375 52.730469 192.921875 C 52.609375 192.859375 52.503906 192.777344 52.417969 192.671875 C 52.332031 192.570312 52.269531 192.453125 52.226562 192.324219 L 51.007812 188.441406 C 50.953125 188.28125 50.898438 188.117188 50.84375 187.957031 C 49.6875 190.464844 48.382812 192.898438 46.933594 195.253906 C 46.730469 195.570312 46.441406 195.726562 46.066406 195.722656 Z M 46.066406 195.722656 " fill-opacity="1" fill-rule="nonzero"/></g><g fill="#000000" fill-opacity="1"><g transform="translate(138.412788, 193.200214)"><g><path d="M 14.53125 0 L 4.46875 0 L 4.46875 -38.546875 L 14.53125 -38.546875 Z M 14.53125 0 "/></g></g></g><g fill="#000000" fill-opacity="1"><g transform="translate(155.956182, 193.200214)"><g><path d="M 22.859375 -20.5625 L 39.84375 -20.5625 L 39.84375 0 L 32.015625 0 L 31.0625 -5.921875 L 29.390625 -1.671875 C 28.304688 -0.742188 27.066406 -0.101562 25.671875 0.25 C 24.273438 0.601562 22.550781 0.78125 20.5 0.78125 C 17.070312 0.78125 14.046875 0.0351562 11.421875 -1.453125 C 8.796875 -2.941406 6.738281 -5.15625 5.25 -8.09375 C 3.757812 -11.039062 3.015625 -14.675781 3.015625 -19 C 3.015625 -22.351562 3.535156 -25.296875 4.578125 -27.828125 C 5.617188 -30.359375 7.039062 -32.476562 8.84375 -34.1875 C 10.65625 -35.90625 12.742188 -37.191406 15.109375 -38.046875 C 17.472656 -38.910156 19.976562 -39.34375 22.625 -39.34375 C 26.3125 -39.34375 29.394531 -38.742188 31.875 -37.546875 C 34.351562 -36.359375 36.269531 -34.75 37.625 -32.71875 C 38.988281 -30.6875 39.800781 -28.40625 40.0625 -25.875 L 40.125 -25.3125 L 30.0625 -25.3125 L 29.953125 -25.875 C 29.128906 -29.925781 26.648438 -31.953125 22.515625 -31.953125 C 20.878906 -31.953125 19.378906 -31.503906 18.015625 -30.609375 C 16.660156 -29.722656 15.570312 -28.363281 14.75 -26.53125 C 13.925781 -24.707031 13.515625 -22.398438 13.515625 -19.609375 C 13.515625 -16.367188 13.929688 -13.796875 14.765625 -11.890625 C 15.609375 -9.992188 16.707031 -8.632812 18.0625 -7.8125 C 19.425781 -7 20.894531 -6.59375 22.46875 -6.59375 C 24.4375 -6.59375 26.0625 -7.082031 27.34375 -8.0625 C 28.632812 -9.050781 29.632812 -10.609375 30.34375 -12.734375 L 22.859375 -12.734375 Z M 22.859375 -20.5625 "/></g></g></g><g fill="#000000" fill-opacity="1"><g transform="translate(198.362037, 193.200214)"><g><path d="M 14.53125 0 L 4.46875 0 L 4.46875 -38.546875 L 14.53125 -38.546875 Z M 14.53125 0 "/></g></g></g><g fill="#000000" fill-opacity="1"><g transform="translate(215.905431, 193.200214)"><g><path d="M 35.875 -30.734375 L 23.359375 -30.734375 L 23.359375 0 L 13.296875 0 L 13.296875 -30.734375 L 0.78125 -30.734375 L 0.78125 -38.546875 L 35.875 -38.546875 Z M 35.875 -30.734375 "/></g></g></g><g fill="#000000" fill-opacity="1"><g transform="translate(251.215712, 193.200214)"><g><path d="M 26.15625 -10 L 14.140625 -10 L 10.890625 0 L 0.21875 0 L 14.140625 -38.546875 L 26.421875 -38.546875 L 40.34375 0 L 29.390625 0 Z M 20.171875 -29.671875 L 16.59375 -17.828125 L 23.75 -17.828125 Z M 20.171875 -29.671875 "/></g></g></g><g fill="#000000" fill-opacity="1"><g transform="translate(290.716281, 193.200214)"><g><path d="M 34.03125 -8.5 L 34.03125 0 L 4.46875 0 L 4.46875 -38.546875 L 14.53125 -38.546875 L 14.53125 -8.5 Z M 34.03125 -8.5 "/></g></g></g><g fill="#000000" fill-opacity="1"><g transform="translate(119.248061, 223.439329)"><g><path d="M 3.015625 -4.0625 L 7.03125 -4.0625 L 5.03125 -9.15625 Z M 9.875 0 L 8.640625 0 L 7.453125 -3.015625 L 2.59375 -3.015625 L 1.40625 0 L 0.15625 0 L 5.03125 -11.828125 Z M 9.875 0 "/></g></g></g><g fill="#000000" fill-opacity="1"><g transform="translate(131.477993, 223.439329)"><g><path d="M 9.8125 -5.53125 C 9.8125 -4.726562 9.664062 -3.988281 9.375 -3.3125 C 9.0625 -2.632812 8.65625 -2.050781 8.15625 -1.5625 C 7.644531 -1.070312 7.039062 -0.691406 6.34375 -0.421875 C 5.644531 -0.140625 4.898438 0 4.109375 0 L 1.21875 0 L 1.21875 -11.0625 L 4.109375 -11.0625 C 4.898438 -11.0625 5.644531 -10.925781 6.34375 -10.65625 C 7.039062 -10.375 7.644531 -9.988281 8.15625 -9.5 C 8.65625 -9.007812 9.0625 -8.429688 9.375 -7.765625 C 9.664062 -7.078125 9.8125 -6.332031 9.8125 -5.53125 Z M 8.703125 -5.53125 C 8.703125 -6.789062 8.257812 -7.84375 7.375 -8.6875 C 6.5 -9.507812 5.421875 -9.921875 4.140625 -9.921875 L 2.359375 -9.921875 L 2.359375 -1.140625 L 4.140625 -1.140625 C 5.421875 -1.140625 6.5 -1.550781 7.375 -2.375 C 8.257812 -3.21875 8.703125 -4.269531 8.703125 -5.53125 Z M 8.703125 -5.53125 "/></g></g></g><g fill="#000000" fill-opacity="1"><g transform="translate(144.211967, 223.439329)"><g><path d="M 11.421875 0 L 9.6875 -7.875 L 6.375 0.65625 L 3.046875 -7.875 L 1.328125 0 L 0.15625 0 L 2.75 -11.796875 L 6.375 -2.328125 L 10 -11.796875 L 12.578125 0 Z M 11.421875 0 "/></g></g></g><g fill="#000000" fill-opacity="1"><g transform="translate(159.140984, 223.439329)"><g><path d="M 2.359375 0 L 1.21875 0 L 1.21875 -11.0625 L 2.359375 -11.0625 Z M 2.359375 0 "/></g></g></g><g fill="#000000" fill-opacity="1"><g transform="translate(164.91586, 223.439329)"><g><path d="M 2.359375 -8.15625 L 2.359375 0 L 1.21875 0 L 1.21875 -11.765625 L 7.4375 -2.921875 L 7.4375 -11.0625 L 8.578125 -11.0625 L 8.578125 0.6875 Z M 2.359375 -8.15625 "/></g></g></g><g fill="#000000" fill-opacity="1"><g transform="translate(176.9019, 223.439329)"><g><path d="M 2.359375 0 L 1.21875 0 L 1.21875 -11.0625 L 2.359375 -11.0625 Z M 2.359375 0 "/></g></g></g><g fill="#000000" fill-opacity="1"><g transform="translate(182.676773, 223.439329)"><g><path d="M 4.296875 -5.21875 C 2.035156 -5.738281 0.90625 -6.703125 0.90625 -8.109375 C 0.90625 -9.148438 1.269531 -9.929688 2 -10.453125 C 2.726562 -10.960938 3.578125 -11.21875 4.546875 -11.21875 C 6.710938 -11.21875 7.992188 -10.414062 8.390625 -8.8125 L 7.15625 -8.8125 C 6.9375 -9.769531 6.066406 -10.25 4.546875 -10.25 C 3.484375 -10.25 2.742188 -9.929688 2.328125 -9.296875 C 2.160156 -9.066406 2.078125 -8.769531 2.078125 -8.40625 C 2.078125 -7.726562 2.445312 -7.203125 3.1875 -6.828125 C 3.53125 -6.648438 4.269531 -6.410156 5.40625 -6.109375 C 6.53125 -5.816406 7.347656 -5.492188 7.859375 -5.140625 C 8.554688 -4.640625 8.90625 -3.941406 8.90625 -3.046875 C 8.90625 -1.921875 8.46875 -1.070312 7.59375 -0.5 C 6.851562 -0.0195312 5.941406 0.21875 4.859375 0.21875 C 2.410156 0.21875 0.992188 -0.71875 0.609375 -2.59375 L 1.953125 -2.59375 C 2.160156 -1.414062 3.128906 -0.828125 4.859375 -0.828125 C 6.097656 -0.828125 6.960938 -1.171875 7.453125 -1.859375 C 7.648438 -2.128906 7.75 -2.492188 7.75 -2.953125 C 7.75 -3.410156 7.566406 -3.785156 7.203125 -4.078125 C 6.691406 -4.492188 5.722656 -4.875 4.296875 -5.21875 Z M 4.296875 -5.21875 "/></g></g></g><g fill="#000000" fill-opacity="1"><g transform="translate(194.207541, 223.439329)"><g><path d="M 0.328125 -10.03125 L 0.328125 -11.09375 L 6.828125 -11.09375 L 6.828125 -10.03125 L 4.140625 -10.03125 L 4.140625 -0.03125 L 3.015625 -0.03125 L 3.015625 -10.03125 Z M 0.328125 -10.03125 "/></g></g></g><g fill="#000000" fill-opacity="1"><g transform="translate(203.559522, 223.439329)"><g><path d="M 2.359375 -5.46875 L 4.921875 -5.46875 C 5.566406 -5.46875 6.09375 -5.679688 6.5 -6.109375 C 6.925781 -6.554688 7.140625 -7.109375 7.140625 -7.765625 C 7.140625 -8.398438 6.9375 -8.929688 6.53125 -9.359375 C 6.132812 -9.765625 5.597656 -9.96875 4.921875 -9.96875 L 2.359375 -9.96875 Z M 8.28125 -7.71875 C 8.28125 -6.757812 7.9375 -5.957031 7.25 -5.3125 C 6.644531 -4.75 5.914062 -4.441406 5.0625 -4.390625 L 8.453125 0 L 6.921875 0 L 3.6875 -4.375 L 2.359375 -4.375 L 2.359375 0 L 1.21875 0 L 1.21875 -11.0625 L 4.765625 -11.0625 C 5.753906 -11.0625 6.582031 -10.753906 7.25 -10.140625 C 7.9375 -9.484375 8.28125 -8.675781 8.28125 -7.71875 Z M 8.28125 -7.71875 "/></g></g></g><g fill="#000000" fill-opacity="1"><g transform="translate(214.602506, 223.439329)"><g><path d="M 3.015625 -4.0625 L 7.03125 -4.0625 L 5.03125 -9.15625 Z M 9.875 0 L 8.640625 0 L 7.453125 -3.015625 L 2.59375 -3.015625 L 1.40625 0 L 0.15625 0 L 5.03125 -11.828125 Z M 9.875 0 "/></g></g></g><g fill="#000000" fill-opacity="1"><g transform="translate(226.832435, 223.439329)"><g><path d="M 0.328125 -10.03125 L 0.328125 -11.09375 L 6.828125 -11.09375 L 6.828125 -10.03125 L 4.140625 -10.03125 L 4.140625 -0.03125 L 3.015625 -0.03125 L 3.015625 -10.03125 Z M 0.328125 -10.03125 "/></g></g></g><g fill="#000000" fill-opacity="1"><g transform="translate(236.184416, 223.439329)"><g><path d="M 10.96875 -5.5625 C 10.96875 -6.8125 10.519531 -7.878906 9.625 -8.765625 C 8.738281 -9.648438 7.664062 -10.09375 6.40625 -10.09375 C 5.15625 -10.09375 4.085938 -9.648438 3.203125 -8.765625 C 2.316406 -7.878906 1.875 -6.8125 1.875 -5.5625 C 1.875 -4.300781 2.316406 -3.226562 3.203125 -2.34375 C 4.085938 -1.457031 5.15625 -1.015625 6.40625 -1.015625 C 7.664062 -1.015625 8.738281 -1.457031 9.625 -2.34375 C 10.519531 -3.226562 10.96875 -4.300781 10.96875 -5.5625 Z M 12.109375 -5.5625 C 12.109375 -4.78125 11.957031 -4.039062 11.65625 -3.34375 C 11.351562 -2.65625 10.945312 -2.054688 10.4375 -1.546875 C 9.914062 -1.023438 9.3125 -0.617188 8.625 -0.328125 C 7.925781 -0.0234375 7.1875 0.125 6.40625 0.125 C 5.625 0.125 4.894531 -0.0234375 4.21875 -0.328125 C 3.519531 -0.617188 2.914062 -1.023438 2.40625 -1.546875 C 1.882812 -2.054688 1.476562 -2.65625 1.1875 -3.34375 C 0.882812 -4.039062 0.734375 -4.78125 0.734375 -5.5625 C 0.734375 -6.34375 0.882812 -7.082031 1.1875 -7.78125 C 1.476562 -8.46875 1.882812 -9.066406 2.40625 -9.578125 C 2.914062 -10.085938 3.519531 -10.492188 4.21875 -10.796875 C 4.894531 -11.085938 5.625 -11.234375 6.40625 -11.234375 C 7.1875 -11.234375 7.925781 -11.085938 8.625 -10.796875 C 9.3125 -10.492188 9.914062 -10.085938 10.4375 -9.578125 C 10.945312 -9.066406 11.351562 -8.46875 11.65625 -7.78125 C 11.957031 -7.082031 12.109375 -6.34375 12.109375 -5.5625 Z M 12.109375 -5.5625 "/></g></g></g><g fill="#000000" fill-opacity="1"><g transform="translate(251.210991, 223.439329)"><g><path d="M 2.359375 -5.46875 L 4.921875 -5.46875 C 5.566406 -5.46875 6.09375 -5.679688 6.5 -6.109375 C 6.925781 -6.554688 7.140625 -7.109375 7.140625 -7.765625 C 7.140625 -8.398438 6.9375 -8.929688 6.53125 -9.359375 C 6.132812 -9.765625 5.597656 -9.96875 4.921875 -9.96875 L 2.359375 -9.96875 Z M 8.28125 -7.71875 C 8.28125 -6.757812 7.9375 -5.957031 7.25 -5.3125 C 6.644531 -4.75 5.914062 -4.441406 5.0625 -4.390625 L 8.453125 0 L 6.921875 0 L 3.6875 -4.375 L 2.359375 -4.375 L 2.359375 0 L 1.21875 0 L 1.21875 -11.0625 L 4.765625 -11.0625 C 5.753906 -11.0625 6.582031 -10.753906 7.25 -10.140625 C 7.9375 -9.484375 8.28125 -8.675781 8.28125 -7.71875 Z M 8.28125 -7.71875 "/></g></g></g></svg>